<?xml version="1.0" encoding="utf-8" standalone="no"?>
<!DOCTYPE svg PUBLIC "-//W3C//DTD SVG 1.1//EN"
  "http://www.w3.org/Graphics/SVG/1.1/DTD/svg11.dtd">
<svg xmlns:xlink="http://www.w3.org/1999/xlink" width="576pt" height="244.8pt" viewBox="0 0 576 244.8" xmlns="http://www.w3.org/2000/svg" version="1.1">
 <metadata>
  <rdf:RDF xmlns:dc="http://purl.org/dc/elements/1.1/" xmlns:cc="http://creativecommons.org/ns#" xmlns:rdf="http://www.w3.org/1999/02/22-rdf-syntax-ns#">
   <cc:Work>
    <dc:type rdf:resource="http://purl.org/dc/dcmitype/StillImage"/>
    <dc:date>2026-09-27T18:38:59.365527</dc:date>
    <dc:format>image/svg+xml</dc:format>
    <dc:creator>
     <cc:Agent>
      <dc:title>Matplotlib v3.11.2, https://matplotlib.org/</dc:title>
     </cc:Agent>
    </dc:creator>
   </cc:Work>
  </rdf:RDF>
 </metadata>
 <defs>
  <style type="text/css">*{stroke-linejoin: round; stroke-linecap: butt}</style>
 </defs>
 <g id="figure_1">
  <g id="patch_1">
   <path d="M 0 244.8 
L 576 244.8 
L 576 0 
L 0 0 
z
" style="fill: #ffffff"/>
  </g>
  <g id="axes_1">
   <g id="patch_2">
    <path d="M 44.482109 208.205891 
L 566.28 208.205891 
L 566.28 30.722578 
L 44.482109 30.722578 
z
" style="fill: #ffffff"/>
   </g>
   <g id="patch_3">
    <path d="M 68.200195 208.205891 
L 86.290261 208.205891 
L 86.290261 208.205891 
L 68.200195 208.205891 
z
" clip-path="url(#p07d30a736f)" style="fill: #2a78d6"/>
   </g>
   <g id="patch_4">
    <path d="M 168.700559 208.205891 
L 186.790625 208.205891 
L 186.790625 208.205891 
L 168.700559 208.205891 
z
" clip-path="url(#p07d30a736f)" style="fill: #2a78d6"/>
   </g>
   <g id="patch_5">
    <path d="M 269.200924 208.205891 
L 287.290989 208.205891 
L 287.290989 208.205891 
L 269.200924 208.205891 
z
" clip-path="url(#p07d30a736f)" style="fill: #2a78d6"/>
   </g>
   <g id="patch_6">
    <path d="M 369.701288 208.205891 
L 387.791353 208.205891 
L 387.791353 208.205891 
L 369.701288 208.205891 
z
" clip-path="url(#p07d30a736f)" style="fill: #2a78d6"/>
   </g>
   <g id="patch_7">
    <path d="M 470.201652 208.205891 
L 488.291717 208.205891 
L 488.291717 208.205891 
L 470.201652 208.205891 
z
" clip-path="url(#p07d30a736f)" style="fill: #2a78d6"/>
   </g>
   <g id="patch_8">
    <path d="M 86.290261 208.205891 
L 104.380326 208.205891 
L 104.380326 208.205891 
L 86.290261 208.205891 
z
" clip-path="url(#p07d30a736f)" style="fill: #eb6834"/>
   </g>
   <g id="patch_9">
    <path d="M 186.790625 208.205891 
L 204.880691 208.205891 
L 204.880691 208.205891 
L 186.790625 208.205891 
z
" clip-path="url(#p07d30a736f)" style="fill: #eb6834"/>
   </g>
   <g id="patch_10">
    <path d="M 287.290989 208.205891 
L 305.381055 208.205891 
L 305.381055 208.205891 
L 287.290989 208.205891 
z
" clip-path="url(#p07d30a736f)" style="fill: #eb6834"/>
   </g>
   <g id="patch_11">
    <path d="M 387.791353 208.205891 
L 405.881419 208.205891 
L 405.881419 208.205891 
L 387.791353 208.205891 
z
" clip-path="url(#p07d30a736f)" style="fill: #eb6834"/>
   </g>
   <g id="patch_12">
    <path d="M 488.291717 208.205891 
L 506.381783 208.205891 
L 506.381783 208.205891 
L 488.291717 208.205891 
z
" clip-path="url(#p07d30a736f)" style="fill: #eb6834"/>
   </g>
   <g id="patch_13">
    <path d="M 104.380326 208.205891 
L 122.470392 208.205891 
L 122.470392 39.174164 
L 104.380326 39.174164 
z
" clip-path="url(#p07d30a736f)" style="fill: #1baf7a"/>
   </g>
   <g id="patch_14">
    <path d="M 204.880691 208.205891 
L 222.970756 208.205891 
L 222.970756 39.174164 
L 204.880691 39.174164 
z
" clip-path="url(#p07d30a736f)" style="fill: #1baf7a"/>
   </g>
   <g id="patch_15">
    <path d="M 305.381055 208.205891 
L 323.47112 208.205891 
L 323.47112 39.174164 
L 305.381055 39.174164 
z
" clip-path="url(#p07d30a736f)" style="fill: #1baf7a"/>
   </g>
   <g id="patch_16">
    <path d="M 405.881419 208.205891 
L 423.971484 208.205891 
L 423.971484 123.690028 
L 405.881419 123.690028 
z
" clip-path="url(#p07d30a736f)" style="fill: #1baf7a"/>
   </g>
   <g id="patch_17">
    <path d="M 506.381783 208.205891 
L 524.471849 208.205891 
L 524.471849 123.690028 
L 506.381783 123.690028 
z
" clip-path="url(#p07d30a736f)" style="fill: #1baf7a"/>
   </g>
   <g id="patch_18">
    <path d="M 122.470392 208.205891 
L 140.560457 208.205891 
L 140.560457 39.174164 
L 122.470392 39.174164 
z
" clip-path="url(#p07d30a736f)" style="fill: #eda100"/>
   </g>
   <g id="patch_19">
    <path d="M 222.970756 208.205891 
L 241.060822 208.205891 
L 241.060822 39.174164 
L 222.970756 39.174164 
z
" clip-path="url(#p07d30a736f)" style="fill: #eda100"/>
   </g>
   <g id="patch_20">
    <path d="M 323.47112 208.205891 
L 341.561186 208.205891 
L 341.561186 39.174164 
L 323.47112 39.174164 
z
" clip-path="url(#p07d30a736f)" style="fill: #eda100"/>
   </g>
   <g id="patch_21">
    <path d="M 423.971484 208.205891 
L 442.06155 208.205891 
L 442.06155 123.690028 
L 423.971484 123.690028 
z
" clip-path="url(#p07d30a736f)" style="fill: #eda100"/>
   </g>
   <g id="patch_22">
    <path d="M 524.471849 208.205891 
L 542.561914 208.205891 
L 542.561914 123.690028 
L 524.471849 123.690028 
z
" clip-path="url(#p07d30a736f)" style="fill: #eda100"/>
   </g>
   <g id="matplotlib.axis_1">
    <g id="xtick_1">
     <g id="line2d_1">
      <defs>
       <path id="m35302ecd6a" d="M 0 0 
L 0 3.5 
" style="stroke: #000000; stroke-width: 0.8"/>
      </defs>
      <g>
       <use xlink:href="#m35302ecd6a" x="104.380326" y="208.205891" style="stroke: #000000; stroke-width: 0.8"/>
      </g>
     </g>
     <g id="text_1">
      <!-- gpt-5.5 -->
      <g transform="translate(88.12267 222.043781) scale(0.09 -0.09)">
       <defs>
        <path id="DejaVuSans-4a" d="M 2906 1791 
Q 2906 2416 2648 2759 
Q 2391 3103 1925 3103 
Q 1463 3103 1205 2759 
Q 947 2416 947 1791 
Q 947 1169 1205 825 
Q 1463 481 1925 481 
Q 2391 481 2648 825 
Q 2906 1169 2906 1791 
z
M 3481 434 
Q 3481 -459 3084 -895 
Q 2688 -1331 1869 -1331 
Q 1566 -1331 1297 -1286 
Q 1028 -1241 775 -1147 
L 775 -588 
Q 1028 -725 1275 -790 
Q 1522 -856 1778 -856 
Q 2344 -856 2625 -561 
Q 2906 -266 2906 331 
L 2906 616 
Q 2728 306 2450 153 
Q 2172 0 1784 0 
Q 1141 0 747 490 
Q 353 981 353 1791 
Q 353 2603 747 3093 
Q 1141 3584 1784 3584 
Q 2172 3584 2450 3431 
Q 2728 3278 2906 2969 
L 2906 3500 
L 3481 3500 
L 3481 434 
z
" transform="scale(0.015625)"/>
        <path id="DejaVuSans-53" d="M 1159 525 
L 1159 -1331 
L 581 -1331 
L 581 3500 
L 1159 3500 
L 1159 2969 
Q 1341 3281 1617 3432 
Q 1894 3584 2278 3584 
Q 2916 3584 3314 3078 
Q 3713 2572 3713 1747 
Q 3713 922 3314 415 
Q 2916 -91 2278 -91 
Q 1894 -91 1617 61 
Q 1341 213 1159 525 
z
M 3116 1747 
Q 3116 2381 2855 2742 
Q 2594 3103 2138 3103 
Q 1681 3103 1420 2742 
Q 1159 2381 1159 1747 
Q 1159 1113 1420 752 
Q 1681 391 2138 391 
Q 2594 391 2855 752 
Q 3116 1113 3116 1747 
z
" transform="scale(0.015625)"/>
        <path id="DejaVuSans-57" d="M 1172 4494 
L 1172 3500 
L 2356 3500 
L 2356 3053 
L 1172 3053 
L 1172 1153 
Q 1172 725 1289 603 
Q 1406 481 1766 481 
L 2356 481 
L 2356 0 
L 1766 0 
Q 1100 0 847 248 
Q 594 497 594 1153 
L 594 3053 
L 172 3053 
L 172 3500 
L 594 3500 
L 594 4494 
L 1172 4494 
z
" transform="scale(0.015625)"/>
        <path id="DejaVuSans-10" d="M 313 2009 
L 1997 2009 
L 1997 1497 
L 313 1497 
L 313 2009 
z
" transform="scale(0.015625)"/>
        <path id="DejaVuSans-18" d="M 691 4666 
L 3169 4666 
L 3169 4134 
L 1269 4134 
L 1269 2991 
Q 1406 3038 1543 3061 
Q 1681 3084 1819 3084 
Q 2600 3084 3056 2656 
Q 3513 2228 3513 1497 
Q 3513 744 3044 326 
Q 2575 -91 1722 -91 
Q 1428 -91 1123 -41 
Q 819 9 494 109 
L 494 744 
Q 775 591 1075 516 
Q 1375 441 1709 441 
Q 2250 441 2565 725 
Q 2881 1009 2881 1497 
Q 2881 1984 2565 2268 
Q 2250 2553 1709 2553 
Q 1456 2553 1204 2497 
Q 953 2441 691 2322 
L 691 4666 
z
" transform="scale(0.015625)"/>
        <path id="DejaVuSans-11" d="M 684 794 
L 1344 794 
L 1344 0 
L 684 0 
L 684 794 
z
" transform="scale(0.015625)"/>
       </defs>
       <use xlink:href="#DejaVuSans-4a"/>
       <use xlink:href="#DejaVuSans-53" transform="translate(63.484375 0)"/>
       <use xlink:href="#DejaVuSans-57" transform="translate(126.96875 0)"/>
       <use xlink:href="#DejaVuSans-10" transform="translate(166.171875 0)"/>
       <use xlink:href="#DejaVuSans-18" transform="translate(202.25 0)"/>
       <use xlink:href="#DejaVuSans-11" transform="translate(265.875 0)"/>
       <use xlink:href="#DejaVuSans-18" transform="translate(297.65625 0)"/>
      </g>
     </g>
    </g>
    <g id="xtick_2">
     <g id="line2d_2">
      <g>
       <use xlink:href="#m35302ecd6a" x="204.880691" y="208.205891" style="stroke: #000000; stroke-width: 0.8"/>
      </g>
     </g>
     <g id="text_2">
      <!-- gpt-5.4 -->
      <g transform="translate(188.623034 222.043781) scale(0.09 -0.09)">
       <defs>
        <path id="DejaVuSans-17" d="M 2419 4116 
L 825 1625 
L 2419 1625 
L 2419 4116 
z
M 2253 4666 
L 3047 4666 
L 3047 1625 
L 3713 1625 
L 3713 1100 
L 3047 1100 
L 3047 0 
L 2419 0 
L 2419 1100 
L 313 1100 
L 313 1709 
L 2253 4666 
z
" transform="scale(0.015625)"/>
       </defs>
       <use xlink:href="#DejaVuSans-4a"/>
       <use xlink:href="#DejaVuSans-53" transform="translate(63.484375 0)"/>
       <use xlink:href="#DejaVuSans-57" transform="translate(126.96875 0)"/>
       <use xlink:href="#DejaVuSans-10" transform="translate(166.171875 0)"/>
       <use xlink:href="#DejaVuSans-18" transform="translate(202.25 0)"/>
       <use xlink:href="#DejaVuSans-11" transform="translate(265.875 0)"/>
       <use xlink:href="#DejaVuSans-17" transform="translate(297.65625 0)"/>
      </g>
     </g>
    </g>
    <g id="xtick_3">
     <g id="line2d_3">
      <g>
       <use xlink:href="#m35302ecd6a" x="305.381055" y="208.205891" style="stroke: #000000; stroke-width: 0.8"/>
      </g>
     </g>
     <g id="text_3">
      <!-- gpt-5.4-mini -->
      <g transform="translate(277.764414 222.044484) scale(0.09 -0.09)">
       <defs>
        <path id="DejaVuSans-50" d="M 3328 2828 
Q 3544 3216 3844 3400 
Q 4144 3584 4550 3584 
Q 5097 3584 5394 3201 
Q 5691 2819 5691 2113 
L 5691 0 
L 5113 0 
L 5113 2094 
Q 5113 2597 4934 2840 
Q 4756 3084 4391 3084 
Q 3944 3084 3684 2787 
Q 3425 2491 3425 1978 
L 3425 0 
L 2847 0 
L 2847 2094 
Q 2847 2600 2669 2842 
Q 2491 3084 2119 3084 
Q 1678 3084 1418 2786 
Q 1159 2488 1159 1978 
L 1159 0 
L 581 0 
L 581 3500 
L 1159 3500 
L 1159 2956 
Q 1356 3278 1631 3431 
Q 1906 3584 2284 3584 
Q 2666 3584 2933 3390 
Q 3200 3197 3328 2828 
z
" transform="scale(0.015625)"/>
        <path id="DejaVuSans-4c" d="M 603 3500 
L 1178 3500 
L 1178 0 
L 603 0 
L 603 3500 
z
M 603 4863 
L 1178 4863 
L 1178 4134 
L 603 4134 
L 603 4863 
z
" transform="scale(0.015625)"/>
        <path id="DejaVuSans-51" d="M 3513 2113 
L 3513 0 
L 2938 0 
L 2938 2094 
Q 2938 2591 2744 2837 
Q 2550 3084 2163 3084 
Q 1697 3084 1428 2787 
Q 1159 2491 1159 1978 
L 1159 0 
L 581 0 
L 581 3500 
L 1159 3500 
L 1159 2956 
Q 1366 3272 1645 3428 
Q 1925 3584 2291 3584 
Q 2894 3584 3203 3211 
Q 3513 2838 3513 2113 
z
" transform="scale(0.015625)"/>
       </defs>
       <use xlink:href="#DejaVuSans-4a"/>
       <use xlink:href="#DejaVuSans-53" transform="translate(63.484375 0)"/>
       <use xlink:href="#DejaVuSans-57" transform="translate(126.96875 0)"/>
       <use xlink:href="#DejaVuSans-10" transform="translate(166.171875 0)"/>
       <use xlink:href="#DejaVuSans-18" transform="translate(202.25 0)"/>
       <use xlink:href="#DejaVuSans-11" transform="translate(265.875 0)"/>
       <use xlink:href="#DejaVuSans-17" transform="translate(297.65625 0)"/>
       <use xlink:href="#DejaVuSans-10" transform="translate(361.28125 0)"/>
       <use xlink:href="#DejaVuSans-50" transform="translate(397.359375 0)"/>
       <use xlink:href="#DejaVuSans-4c" transform="translate(494.765625 0)"/>
       <use xlink:href="#DejaVuSans-51" transform="translate(522.546875 0)"/>
       <use xlink:href="#DejaVuSans-4c" transform="translate(585.921875 0)"/>
      </g>
     </g>
    </g>
    <g id="xtick_4">
     <g id="line2d_4">
      <g>
       <use xlink:href="#m35302ecd6a" x="405.881419" y="208.205891" style="stroke: #000000; stroke-width: 0.8"/>
      </g>
     </g>
     <g id="text_4">
      <!-- gpt-4.1-mini -->
      <g transform="translate(378.264778 222.044484) scale(0.09 -0.09)">
       <defs>
        <path id="DejaVuSans-14" d="M 794 531 
L 1825 531 
L 1825 4091 
L 703 3866 
L 703 4441 
L 1819 4666 
L 2450 4666 
L 2450 531 
L 3481 531 
L 3481 0 
L 794 0 
L 794 531 
z
" transform="scale(0.015625)"/>
       </defs>
       <use xlink:href="#DejaVuSans-4a"/>
       <use xlink:href="#DejaVuSans-53" transform="translate(63.484375 0)"/>
       <use xlink:href="#DejaVuSans-57" transform="translate(126.96875 0)"/>
       <use xlink:href="#DejaVuSans-10" transform="translate(166.171875 0)"/>
       <use xlink:href="#DejaVuSans-17" transform="translate(202.25 0)"/>
       <use xlink:href="#DejaVuSans-11" transform="translate(265.875 0)"/>
       <use xlink:href="#DejaVuSans-14" transform="translate(297.65625 0)"/>
       <use xlink:href="#DejaVuSans-10" transform="translate(361.28125 0)"/>
       <use xlink:href="#DejaVuSans-50" transform="translate(397.359375 0)"/>
       <use xlink:href="#DejaVuSans-4c" transform="translate(494.765625 0)"/>
       <use xlink:href="#DejaVuSans-51" transform="translate(522.546875 0)"/>
       <use xlink:href="#DejaVuSans-4c" transform="translate(585.921875 0)"/>
      </g>
     </g>
    </g>
    <g id="xtick_5">
     <g id="line2d_5">
      <g>
       <use xlink:href="#m35302ecd6a" x="506.381783" y="208.205891" style="stroke: #000000; stroke-width: 0.8"/>
      </g>
     </g>
     <g id="text_5">
      <!-- Qwen2.5 7B (local) -->
      <g transform="translate(463.574127 222.044484) scale(0.09 -0.09)">
       <defs>
        <path id="DejaVuSans-34" d="M 2522 4238 
Q 1834 4238 1429 3725 
Q 1025 3213 1025 2328 
Q 1025 1447 1429 934 
Q 1834 422 2522 422 
Q 3209 422 3611 934 
Q 4013 1447 4013 2328 
Q 4013 3213 3611 3725 
Q 3209 4238 2522 4238 
z
M 3406 84 
L 4238 -825 
L 3475 -825 
L 2784 -78 
Q 2681 -84 2626 -87 
Q 2572 -91 2522 -91 
Q 1538 -91 948 567 
Q 359 1225 359 2328 
Q 359 3434 948 4092 
Q 1538 4750 2522 4750 
Q 3503 4750 4090 4092 
Q 4678 3434 4678 2328 
Q 4678 1516 4351 937 
Q 4025 359 3406 84 
z
" transform="scale(0.015625)"/>
        <path id="DejaVuSans-5a" d="M 269 3500 
L 844 3500 
L 1563 769 
L 2278 3500 
L 2956 3500 
L 3675 769 
L 4391 3500 
L 4966 3500 
L 4050 0 
L 3372 0 
L 2619 2869 
L 1863 0 
L 1184 0 
L 269 3500 
z
" transform="scale(0.015625)"/>
        <path id="DejaVuSans-48" d="M 3597 1894 
L 3597 1613 
L 953 1613 
Q 991 1019 1311 708 
Q 1631 397 2203 397 
Q 2534 397 2845 478 
Q 3156 559 3463 722 
L 3463 178 
Q 3153 47 2828 -22 
Q 2503 -91 2169 -91 
Q 1331 -91 842 396 
Q 353 884 353 1716 
Q 353 2575 817 3079 
Q 1281 3584 2069 3584 
Q 2775 3584 3186 3129 
Q 3597 2675 3597 1894 
z
M 3022 2063 
Q 3016 2534 2758 2815 
Q 2500 3097 2075 3097 
Q 1594 3097 1305 2825 
Q 1016 2553 972 2059 
L 3022 2063 
z
" transform="scale(0.015625)"/>
        <path id="DejaVuSans-15" d="M 1228 531 
L 3431 531 
L 3431 0 
L 469 0 
L 469 531 
Q 828 903 1448 1529 
Q 2069 2156 2228 2338 
Q 2531 2678 2651 2914 
Q 2772 3150 2772 3378 
Q 2772 3750 2511 3984 
Q 2250 4219 1831 4219 
Q 1534 4219 1204 4116 
Q 875 4013 500 3803 
L 500 4441 
Q 881 4594 1212 4672 
Q 1544 4750 1819 4750 
Q 2544 4750 2975 4387 
Q 3406 4025 3406 3419 
Q 3406 3131 3298 2873 
Q 3191 2616 2906 2266 
Q 2828 2175 2409 1742 
Q 1991 1309 1228 531 
z
" transform="scale(0.015625)"/>
        <path id="DejaVuSans-3" transform="scale(0.015625)"/>
        <path id="DejaVuSans-1a" d="M 525 4666 
L 3525 4666 
L 3525 4397 
L 1831 0 
L 1172 0 
L 2766 4134 
L 525 4134 
L 525 4666 
z
" transform="scale(0.015625)"/>
        <path id="DejaVuSans-25" d="M 1259 2228 
L 1259 519 
L 2272 519 
Q 2781 519 3026 730 
Q 3272 941 3272 1375 
Q 3272 1813 3026 2020 
Q 2781 2228 2272 2228 
L 1259 2228 
z
M 1259 4147 
L 1259 2741 
L 2194 2741 
Q 2656 2741 2882 2914 
Q 3109 3088 3109 3444 
Q 3109 3797 2882 3972 
Q 2656 4147 2194 4147 
L 1259 4147 
z
M 628 4666 
L 2241 4666 
Q 2963 4666 3353 4366 
Q 3744 4066 3744 3513 
Q 3744 3084 3544 2831 
Q 3344 2578 2956 2516 
Q 3422 2416 3680 2098 
Q 3938 1781 3938 1306 
Q 3938 681 3513 340 
Q 3088 0 2303 0 
L 628 0 
L 628 4666 
z
" transform="scale(0.015625)"/>
        <path id="DejaVuSans-b" d="M 1984 4856 
Q 1566 4138 1362 3434 
Q 1159 2731 1159 2009 
Q 1159 1288 1364 580 
Q 1569 -128 1984 -844 
L 1484 -844 
Q 1016 -109 783 600 
Q 550 1309 550 2009 
Q 550 2706 781 3412 
Q 1013 4119 1484 4856 
L 1984 4856 
z
" transform="scale(0.015625)"/>
        <path id="DejaVuSans-4f" d="M 603 4863 
L 1178 4863 
L 1178 0 
L 603 0 
L 603 4863 
z
" transform="scale(0.015625)"/>
        <path id="DejaVuSans-52" d="M 1959 3097 
Q 1497 3097 1228 2736 
Q 959 2375 959 1747 
Q 959 1119 1226 758 
Q 1494 397 1959 397 
Q 2419 397 2687 759 
Q 2956 1122 2956 1747 
Q 2956 2369 2687 2733 
Q 2419 3097 1959 3097 
z
M 1959 3584 
Q 2709 3584 3137 3096 
Q 3566 2609 3566 1747 
Q 3566 888 3137 398 
Q 2709 -91 1959 -91 
Q 1206 -91 779 398 
Q 353 888 353 1747 
Q 353 2609 779 3096 
Q 1206 3584 1959 3584 
z
" transform="scale(0.015625)"/>
        <path id="DejaVuSans-46" d="M 3122 3366 
L 3122 2828 
Q 2878 2963 2633 3030 
Q 2388 3097 2138 3097 
Q 1578 3097 1268 2742 
Q 959 2388 959 1747 
Q 959 1106 1268 751 
Q 1578 397 2138 397 
Q 2388 397 2633 464 
Q 2878 531 3122 666 
L 3122 134 
Q 2881 22 2623 -34 
Q 2366 -91 2075 -91 
Q 1284 -91 818 406 
Q 353 903 353 1747 
Q 353 2603 823 3093 
Q 1294 3584 2113 3584 
Q 2378 3584 2631 3529 
Q 2884 3475 3122 3366 
z
" transform="scale(0.015625)"/>
        <path id="DejaVuSans-44" d="M 2194 1759 
Q 1497 1759 1228 1600 
Q 959 1441 959 1056 
Q 959 750 1161 570 
Q 1363 391 1709 391 
Q 2188 391 2477 730 
Q 2766 1069 2766 1631 
L 2766 1759 
L 2194 1759 
z
M 3341 1997 
L 3341 0 
L 2766 0 
L 2766 531 
Q 2569 213 2275 61 
Q 1981 -91 1556 -91 
Q 1019 -91 701 211 
Q 384 513 384 1019 
Q 384 1609 779 1909 
Q 1175 2209 1959 2209 
L 2766 2209 
L 2766 2266 
Q 2766 2663 2505 2880 
Q 2244 3097 1772 3097 
Q 1472 3097 1187 3025 
Q 903 2953 641 2809 
L 641 3341 
Q 956 3463 1253 3523 
Q 1550 3584 1831 3584 
Q 2591 3584 2966 3190 
Q 3341 2797 3341 1997 
z
" transform="scale(0.015625)"/>
        <path id="DejaVuSans-c" d="M 513 4856 
L 1013 4856 
Q 1481 4119 1714 3412 
Q 1947 2706 1947 2009 
Q 1947 1309 1714 600 
Q 1481 -109 1013 -844 
L 513 -844 
Q 928 -128 1133 580 
Q 1338 1288 1338 2009 
Q 1338 2731 1133 3434 
Q 928 4138 513 4856 
z
" transform="scale(0.015625)"/>
       </defs>
       <use xlink:href="#DejaVuSans-34"/>
       <use xlink:href="#DejaVuSans-5a" transform="translate(78.71875 0)"/>
       <use xlink:href="#DejaVuSans-48" transform="translate(160.5 0)"/>
       <use xlink:href="#DejaVuSans-51" transform="translate(222.03125 0)"/>
       <use xlink:href="#DejaVuSans-15" transform="translate(285.40625 0)"/>
       <use xlink:href="#DejaVuSans-11" transform="translate(349.03125 0)"/>
       <use xlink:href="#DejaVuSans-18" transform="translate(380.8125 0)"/>
       <use xlink:href="#DejaVuSans-3" transform="translate(444.4375 0)"/>
       <use xlink:href="#DejaVuSans-1a" transform="translate(476.21875 0)"/>
       <use xlink:href="#DejaVuSans-25" transform="translate(539.84375 0)"/>
       <use xlink:href="#DejaVuSans-3" transform="translate(608.453125 0)"/>
       <use xlink:href="#DejaVuSans-b" transform="translate(640.234375 0)"/>
       <use xlink:href="#DejaVuSans-4f" transform="translate(679.25 0)"/>
       <use xlink:href="#DejaVuSans-52" transform="translate(707.03125 0)"/>
       <use xlink:href="#DejaVuSans-46" transform="translate(768.21875 0)"/>
       <use xlink:href="#DejaVuSans-44" transform="translate(823.203125 0)"/>
       <use xlink:href="#DejaVuSans-4f" transform="translate(884.484375 0)"/>
       <use xlink:href="#DejaVuSans-c" transform="translate(912.265625 0)"/>
      </g>
     </g>
    </g>
   </g>
   <g id="matplotlib.axis_2">
    <g id="ytick_1">
     <g id="line2d_6">
      <defs>
       <path id="m83543b19c8" d="M 0 0 
L -3.5 0 
" style="stroke: #000000; stroke-width: 0.8"/>
      </defs>
      <g>
       <use xlink:href="#m83543b19c8" x="44.482109" y="208.205891" style="stroke: #000000; stroke-width: 0.8"/>
      </g>
     </g>
     <g id="text_6">
      <!-- 0.0 -->
      <g transform="translate(23.169297 211.624836) scale(0.09 -0.09)">
       <defs>
        <path id="DejaVuSans-13" d="M 2034 4250 
Q 1547 4250 1301 3770 
Q 1056 3291 1056 2328 
Q 1056 1369 1301 889 
Q 1547 409 2034 409 
Q 2525 409 2770 889 
Q 3016 1369 3016 2328 
Q 3016 3291 2770 3770 
Q 2525 4250 2034 4250 
z
M 2034 4750 
Q 2819 4750 3233 4129 
Q 3647 3509 3647 2328 
Q 3647 1150 3233 529 
Q 2819 -91 2034 -91 
Q 1250 -91 836 529 
Q 422 1150 422 2328 
Q 422 3509 836 4129 
Q 1250 4750 2034 4750 
z
" transform="scale(0.015625)"/>
       </defs>
       <use xlink:href="#DejaVuSans-13"/>
       <use xlink:href="#DejaVuSans-11" transform="translate(63.625 0)"/>
       <use xlink:href="#DejaVuSans-13" transform="translate(95.40625 0)"/>
      </g>
     </g>
    </g>
    <g id="ytick_2">
     <g id="line2d_7">
      <g>
       <use xlink:href="#m83543b19c8" x="44.482109" y="187.076925" style="stroke: #000000; stroke-width: 0.8"/>
      </g>
     </g>
     <g id="text_7">
      <!-- 0.5 -->
      <g transform="translate(23.169297 190.49587) scale(0.09 -0.09)">
       <use xlink:href="#DejaVuSans-13"/>
       <use xlink:href="#DejaVuSans-11" transform="translate(63.625 0)"/>
       <use xlink:href="#DejaVuSans-18" transform="translate(95.40625 0)"/>
      </g>
     </g>
    </g>
    <g id="ytick_3">
     <g id="line2d_8">
      <g>
       <use xlink:href="#m83543b19c8" x="44.482109" y="165.947959" style="stroke: #000000; stroke-width: 0.8"/>
      </g>
     </g>
     <g id="text_8">
      <!-- 1.0 -->
      <g transform="translate(23.169297 169.366904) scale(0.09 -0.09)">
       <use xlink:href="#DejaVuSans-14"/>
       <use xlink:href="#DejaVuSans-11" transform="translate(63.625 0)"/>
       <use xlink:href="#DejaVuSans-13" transform="translate(95.40625 0)"/>
      </g>
     </g>
    </g>
    <g id="ytick_4">
     <g id="line2d_9">
      <g>
       <use xlink:href="#m83543b19c8" x="44.482109" y="144.818993" style="stroke: #000000; stroke-width: 0.8"/>
      </g>
     </g>
     <g id="text_9">
      <!-- 1.5 -->
      <g transform="translate(23.169297 148.237939) scale(0.09 -0.09)">
       <use xlink:href="#DejaVuSans-14"/>
       <use xlink:href="#DejaVuSans-11" transform="translate(63.625 0)"/>
       <use xlink:href="#DejaVuSans-18" transform="translate(95.40625 0)"/>
      </g>
     </g>
    </g>
    <g id="ytick_5">
     <g id="line2d_10">
      <g>
       <use xlink:href="#m83543b19c8" x="44.482109" y="123.690028" style="stroke: #000000; stroke-width: 0.8"/>
      </g>
     </g>
     <g id="text_10">
      <!-- 2.0 -->
      <g transform="translate(23.169297 127.108973) scale(0.09 -0.09)">
       <use xlink:href="#DejaVuSans-15"/>
       <use xlink:href="#DejaVuSans-11" transform="translate(63.625 0)"/>
       <use xlink:href="#DejaVuSans-13" transform="translate(95.40625 0)"/>
      </g>
     </g>
    </g>
    <g id="ytick_6">
     <g id="line2d_11">
      <g>
       <use xlink:href="#m83543b19c8" x="44.482109" y="102.561062" style="stroke: #000000; stroke-width: 0.8"/>
      </g>
     </g>
     <g id="text_11">
      <!-- 2.5 -->
      <g transform="translate(23.169297 105.980007) scale(0.09 -0.09)">
       <use xlink:href="#DejaVuSans-15"/>
       <use xlink:href="#DejaVuSans-11" transform="translate(63.625 0)"/>
       <use xlink:href="#DejaVuSans-18" transform="translate(95.40625 0)"/>
      </g>
     </g>
    </g>
    <g id="ytick_7">
     <g id="line2d_12">
      <g>
       <use xlink:href="#m83543b19c8" x="44.482109" y="81.432096" style="stroke: #000000; stroke-width: 0.8"/>
      </g>
     </g>
     <g id="text_12">
      <!-- 3.0 -->
      <g transform="translate(23.169297 84.851041) scale(0.09 -0.09)">
       <defs>
        <path id="DejaVuSans-16" d="M 2597 2516 
Q 3050 2419 3304 2112 
Q 3559 1806 3559 1356 
Q 3559 666 3084 287 
Q 2609 -91 1734 -91 
Q 1441 -91 1130 -33 
Q 819 25 488 141 
L 488 750 
Q 750 597 1062 519 
Q 1375 441 1716 441 
Q 2309 441 2620 675 
Q 2931 909 2931 1356 
Q 2931 1769 2642 2001 
Q 2353 2234 1838 2234 
L 1294 2234 
L 1294 2753 
L 1863 2753 
Q 2328 2753 2575 2939 
Q 2822 3125 2822 3475 
Q 2822 3834 2567 4026 
Q 2313 4219 1838 4219 
Q 1578 4219 1281 4162 
Q 984 4106 628 3988 
L 628 4550 
Q 988 4650 1302 4700 
Q 1616 4750 1894 4750 
Q 2613 4750 3031 4423 
Q 3450 4097 3450 3541 
Q 3450 3153 3228 2886 
Q 3006 2619 2597 2516 
z
" transform="scale(0.015625)"/>
       </defs>
       <use xlink:href="#DejaVuSans-16"/>
       <use xlink:href="#DejaVuSans-11" transform="translate(63.625 0)"/>
       <use xlink:href="#DejaVuSans-13" transform="translate(95.40625 0)"/>
      </g>
     </g>
    </g>
    <g id="ytick_8">
     <g id="line2d_13">
      <g>
       <use xlink:href="#m83543b19c8" x="44.482109" y="60.30313" style="stroke: #000000; stroke-width: 0.8"/>
      </g>
     </g>
     <g id="text_13">
      <!-- 3.5 -->
      <g transform="translate(23.169297 63.722076) scale(0.09 -0.09)">
       <use xlink:href="#DejaVuSans-16"/>
       <use xlink:href="#DejaVuSans-11" transform="translate(63.625 0)"/>
       <use xlink:href="#DejaVuSans-18" transform="translate(95.40625 0)"/>
      </g>
     </g>
    </g>
    <g id="ytick_9">
     <g id="line2d_14">
      <g>
       <use xlink:href="#m83543b19c8" x="44.482109" y="39.174164" style="stroke: #000000; stroke-width: 0.8"/>
      </g>
     </g>
     <g id="text_14">
      <!-- 4.0 -->
      <g transform="translate(23.169297 42.59311) scale(0.09 -0.09)">
       <use xlink:href="#DejaVuSans-17"/>
       <use xlink:href="#DejaVuSans-11" transform="translate(63.625 0)"/>
       <use xlink:href="#DejaVuSans-13" transform="translate(95.40625 0)"/>
      </g>
     </g>
    </g>
    <g id="text_15">
     <!-- mensajes -->
     <g transform="translate(17.007188 140.933453) rotate(-90) scale(0.09 -0.09)">
      <defs>
       <path id="DejaVuSans-56" d="M 2834 3397 
L 2834 2853 
Q 2591 2978 2328 3040 
Q 2066 3103 1784 3103 
Q 1356 3103 1142 2972 
Q 928 2841 928 2578 
Q 928 2378 1081 2264 
Q 1234 2150 1697 2047 
L 1894 2003 
Q 2506 1872 2764 1633 
Q 3022 1394 3022 966 
Q 3022 478 2636 193 
Q 2250 -91 1575 -91 
Q 1294 -91 989 -36 
Q 684 19 347 128 
L 347 722 
Q 666 556 975 473 
Q 1284 391 1588 391 
Q 1994 391 2212 530 
Q 2431 669 2431 922 
Q 2431 1156 2273 1281 
Q 2116 1406 1581 1522 
L 1381 1569 
Q 847 1681 609 1914 
Q 372 2147 372 2553 
Q 372 3047 722 3315 
Q 1072 3584 1716 3584 
Q 2034 3584 2315 3537 
Q 2597 3491 2834 3397 
z
" transform="scale(0.015625)"/>
       <path id="DejaVuSans-4d" d="M 603 3500 
L 1178 3500 
L 1178 -63 
Q 1178 -731 923 -1031 
Q 669 -1331 103 -1331 
L -116 -1331 
L -116 -844 
L 38 -844 
Q 366 -844 484 -692 
Q 603 -541 603 -63 
L 603 3500 
z
M 603 4863 
L 1178 4863 
L 1178 4134 
L 603 4134 
L 603 4863 
z
" transform="scale(0.015625)"/>
      </defs>
      <use xlink:href="#DejaVuSans-50"/>
      <use xlink:href="#DejaVuSans-48" transform="translate(97.40625 0)"/>
      <use xlink:href="#DejaVuSans-51" transform="translate(158.9375 0)"/>
      <use xlink:href="#DejaVuSans-56" transform="translate(222.3125 0)"/>
      <use xlink:href="#DejaVuSans-44" transform="translate(274.40625 0)"/>
      <use xlink:href="#DejaVuSans-4d" transform="translate(335.6875 0)"/>
      <use xlink:href="#DejaVuSans-48" transform="translate(363.46875 0)"/>
      <use xlink:href="#DejaVuSans-56" transform="translate(425 0)"/>
     </g>
    </g>
   </g>
   <g id="patch_23">
    <path d="M 44.482109 208.205891 
L 44.482109 30.722578 
" style="fill: none; stroke: #000000; stroke-width: 0.8; stroke-linejoin: miter; stroke-linecap: square"/>
   </g>
   <g id="patch_24">
    <path d="M 44.482109 208.205891 
L 566.28 208.205891 
" style="fill: none; stroke: #000000; stroke-width: 0.8; stroke-linejoin: miter; stroke-linecap: square"/>
   </g>
   <g id="legend_1">
    <g id="patch_25">
     <path d="M 377.565 49.123203 
L 560.68 49.123203 
Q 562.28 49.123203 562.28 47.523203 
L 562.28 36.322578 
Q 562.28 34.722578 560.68 34.722578 
L 377.565 34.722578 
Q 375.965 34.722578 375.965 36.322578 
L 375.965 47.523203 
Q 375.965 49.123203 377.565 49.123203 
z
" style="fill: #ffffff; opacity: 0.8; stroke: #cccccc; stroke-linejoin: miter"/>
    </g>
    <g id="patch_26">
     <path d="M 379.165 44.001328 
L 395.165 44.001328 
L 395.165 38.401328 
L 379.165 38.401328 
z
" style="fill: #2a78d6"/>
    </g>
    <g id="text_16">
     <!-- B0 -->
     <g transform="translate(401.565 44.001328) scale(0.08 -0.08)">
      <use xlink:href="#DejaVuSans-25"/>
      <use xlink:href="#DejaVuSans-13" transform="translate(68.609375 0)"/>
     </g>
    </g>
    <g id="patch_27">
     <path d="M 428.14375 44.001328 
L 444.14375 44.001328 
L 444.14375 38.401328 
L 428.14375 38.401328 
z
" style="fill: #eb6834"/>
    </g>
    <g id="text_17">
     <!-- B1 -->
     <g transform="translate(450.54375 44.001328) scale(0.08 -0.08)">
      <use xlink:href="#DejaVuSans-25"/>
      <use xlink:href="#DejaVuSans-14" transform="translate(68.609375 0)"/>
     </g>
    </g>
    <g id="patch_28">
     <path d="M 477.1225 44.001328 
L 493.1225 44.001328 
L 493.1225 38.401328 
L 477.1225 38.401328 
z
" style="fill: #1baf7a"/>
    </g>
    <g id="text_18">
     <!-- B2 -->
     <g transform="translate(499.5225 44.001328) scale(0.08 -0.08)">
      <use xlink:href="#DejaVuSans-25"/>
      <use xlink:href="#DejaVuSans-15" transform="translate(68.609375 0)"/>
     </g>
    </g>
    <g id="patch_29">
     <path d="M 526.10125 44.001328 
L 542.10125 44.001328 
L 542.10125 38.401328 
L 526.10125 38.401328 
z
" style="fill: #eda100"/>
    </g>
    <g id="text_19">
     <!-- B3 -->
     <g transform="translate(548.50125 44.001328) scale(0.08 -0.08)">
      <use xlink:href="#DejaVuSans-25"/>
      <use xlink:href="#DejaVuSans-16" transform="translate(68.609375 0)"/>
     </g>
    </g>
   </g>
  </g>
  <g id="text_20">
   <!-- Mensajes entre agentes por ejecución (M4.5): mediana entre tareas -->
   <g transform="translate(76.70375 13.694281) scale(0.11 -0.11)">
    <defs>
     <path id="DejaVuSans-Bold-30" d="M 588 4666 
L 2119 4666 
L 3181 2169 
L 4250 4666 
L 5778 4666 
L 5778 0 
L 4641 0 
L 4641 3413 
L 3566 897 
L 2803 897 
L 1728 3413 
L 1728 0 
L 588 0 
L 588 4666 
z
" transform="scale(0.015625)"/>
     <path id="DejaVuSans-Bold-48" d="M 4031 1759 
L 4031 1441 
L 1416 1441 
Q 1456 1047 1700 850 
Q 1944 653 2381 653 
Q 2734 653 3104 758 
Q 3475 863 3866 1075 
L 3866 213 
Q 3469 63 3072 -14 
Q 2675 -91 2278 -91 
Q 1328 -91 801 392 
Q 275 875 275 1747 
Q 275 2603 792 3093 
Q 1309 3584 2216 3584 
Q 3041 3584 3536 3087 
Q 4031 2591 4031 1759 
z
M 2881 2131 
Q 2881 2450 2695 2645 
Q 2509 2841 2209 2841 
Q 1884 2841 1681 2658 
Q 1478 2475 1428 2131 
L 2881 2131 
z
" transform="scale(0.015625)"/>
     <path id="DejaVuSans-Bold-51" d="M 4056 2131 
L 4056 0 
L 2931 0 
L 2931 347 
L 2931 1631 
Q 2931 2084 2911 2256 
Q 2891 2428 2841 2509 
Q 2775 2619 2662 2680 
Q 2550 2741 2406 2741 
Q 2056 2741 1856 2470 
Q 1656 2200 1656 1722 
L 1656 0 
L 538 0 
L 538 3500 
L 1656 3500 
L 1656 2988 
Q 1909 3294 2193 3439 
Q 2478 3584 2822 3584 
Q 3428 3584 3742 3212 
Q 4056 2841 4056 2131 
z
" transform="scale(0.015625)"/>
     <path id="DejaVuSans-Bold-56" d="M 3272 3391 
L 3272 2541 
Q 2913 2691 2578 2766 
Q 2244 2841 1947 2841 
Q 1628 2841 1473 2761 
Q 1319 2681 1319 2516 
Q 1319 2381 1436 2309 
Q 1553 2238 1856 2203 
L 2053 2175 
Q 2913 2066 3209 1816 
Q 3506 1566 3506 1031 
Q 3506 472 3093 190 
Q 2681 -91 1863 -91 
Q 1516 -91 1145 -36 
Q 775 19 384 128 
L 384 978 
Q 719 816 1070 734 
Q 1422 653 1784 653 
Q 2113 653 2278 743 
Q 2444 834 2444 1013 
Q 2444 1163 2330 1236 
Q 2216 1309 1875 1350 
L 1678 1375 
Q 931 1469 631 1722 
Q 331 1975 331 2491 
Q 331 3047 712 3315 
Q 1094 3584 1881 3584 
Q 2191 3584 2531 3537 
Q 2872 3491 3272 3391 
z
" transform="scale(0.015625)"/>
     <path id="DejaVuSans-Bold-44" d="M 2106 1575 
Q 1756 1575 1579 1456 
Q 1403 1338 1403 1106 
Q 1403 894 1545 773 
Q 1688 653 1941 653 
Q 2256 653 2472 879 
Q 2688 1106 2688 1447 
L 2688 1575 
L 2106 1575 
z
M 3816 1997 
L 3816 0 
L 2688 0 
L 2688 519 
Q 2463 200 2181 54 
Q 1900 -91 1497 -91 
Q 953 -91 614 226 
Q 275 544 275 1050 
Q 275 1666 698 1953 
Q 1122 2241 2028 2241 
L 2688 2241 
L 2688 2328 
Q 2688 2594 2478 2717 
Q 2269 2841 1825 2841 
Q 1466 2841 1156 2769 
Q 847 2697 581 2553 
L 581 3406 
Q 941 3494 1303 3539 
Q 1666 3584 2028 3584 
Q 2975 3584 3395 3211 
Q 3816 2838 3816 1997 
z
" transform="scale(0.015625)"/>
     <path id="DejaVuSans-Bold-4d" d="M 538 3500 
L 1656 3500 
L 1656 63 
Q 1656 -641 1318 -1011 
Q 981 -1381 341 -1381 
L -213 -1381 
L -213 -647 
L -19 -647 
Q 300 -647 419 -503 
Q 538 -359 538 63 
L 538 3500 
z
M 538 4863 
L 1656 4863 
L 1656 3950 
L 538 3950 
L 538 4863 
z
" transform="scale(0.015625)"/>
     <path id="DejaVuSans-Bold-3" transform="scale(0.015625)"/>
     <path id="DejaVuSans-Bold-57" d="M 1759 4494 
L 1759 3500 
L 2913 3500 
L 2913 2700 
L 1759 2700 
L 1759 1216 
Q 1759 972 1856 886 
Q 1953 800 2241 800 
L 2816 800 
L 2816 0 
L 1856 0 
Q 1194 0 917 276 
Q 641 553 641 1216 
L 641 2700 
L 84 2700 
L 84 3500 
L 641 3500 
L 641 4494 
L 1759 4494 
z
" transform="scale(0.015625)"/>
     <path id="DejaVuSans-Bold-55" d="M 3138 2547 
Q 2991 2616 2845 2648 
Q 2700 2681 2553 2681 
Q 2122 2681 1889 2404 
Q 1656 2128 1656 1613 
L 1656 0 
L 538 0 
L 538 3500 
L 1656 3500 
L 1656 2925 
Q 1872 3269 2151 3426 
Q 2431 3584 2822 3584 
Q 2878 3584 2943 3579 
Q 3009 3575 3134 3559 
L 3138 2547 
z
" transform="scale(0.015625)"/>
     <path id="DejaVuSans-Bold-4a" d="M 2919 594 
Q 2688 288 2409 144 
Q 2131 0 1766 0 
Q 1125 0 706 504 
Q 288 1009 288 1791 
Q 288 2575 706 3076 
Q 1125 3578 1766 3578 
Q 2131 3578 2409 3434 
Q 2688 3291 2919 2981 
L 2919 3500 
L 4044 3500 
L 4044 353 
Q 4044 -491 3511 -936 
Q 2978 -1381 1966 -1381 
Q 1638 -1381 1331 -1331 
Q 1025 -1281 716 -1178 
L 716 -306 
Q 1009 -475 1290 -558 
Q 1572 -641 1856 -641 
Q 2406 -641 2662 -400 
Q 2919 -159 2919 353 
L 2919 594 
z
M 2181 2772 
Q 1834 2772 1640 2515 
Q 1447 2259 1447 1791 
Q 1447 1309 1634 1061 
Q 1822 813 2181 813 
Q 2531 813 2725 1069 
Q 2919 1325 2919 1791 
Q 2919 2259 2725 2515 
Q 2531 2772 2181 2772 
z
" transform="scale(0.015625)"/>
     <path id="DejaVuSans-Bold-53" d="M 1656 506 
L 1656 -1331 
L 538 -1331 
L 538 3500 
L 1656 3500 
L 1656 2988 
Q 1888 3294 2169 3439 
Q 2450 3584 2816 3584 
Q 3463 3584 3878 3070 
Q 4294 2556 4294 1747 
Q 4294 938 3878 423 
Q 3463 -91 2816 -91 
Q 2450 -91 2169 54 
Q 1888 200 1656 506 
z
M 2400 2772 
Q 2041 2772 1848 2508 
Q 1656 2244 1656 1747 
Q 1656 1250 1848 986 
Q 2041 722 2400 722 
Q 2759 722 2948 984 
Q 3138 1247 3138 1747 
Q 3138 2247 2948 2509 
Q 2759 2772 2400 2772 
z
" transform="scale(0.015625)"/>
     <path id="DejaVuSans-Bold-52" d="M 2203 2784 
Q 1831 2784 1636 2517 
Q 1441 2250 1441 1747 
Q 1441 1244 1636 976 
Q 1831 709 2203 709 
Q 2569 709 2762 976 
Q 2956 1244 2956 1747 
Q 2956 2250 2762 2517 
Q 2569 2784 2203 2784 
z
M 2203 3584 
Q 3106 3584 3614 3096 
Q 4122 2609 4122 1747 
Q 4122 884 3614 396 
Q 3106 -91 2203 -91 
Q 1297 -91 786 396 
Q 275 884 275 1747 
Q 275 2609 786 3096 
Q 1297 3584 2203 3584 
z
" transform="scale(0.015625)"/>
     <path id="DejaVuSans-Bold-46" d="M 3366 3391 
L 3366 2478 
Q 3138 2634 2908 2709 
Q 2678 2784 2431 2784 
Q 1963 2784 1702 2511 
Q 1441 2238 1441 1747 
Q 1441 1256 1702 982 
Q 1963 709 2431 709 
Q 2694 709 2930 787 
Q 3166 866 3366 1019 
L 3366 103 
Q 3103 6 2833 -42 
Q 2563 -91 2291 -91 
Q 1344 -91 809 395 
Q 275 881 275 1747 
Q 275 2613 809 3098 
Q 1344 3584 2291 3584 
Q 2566 3584 2833 3536 
Q 3100 3488 3366 3391 
z
" transform="scale(0.015625)"/>
     <path id="DejaVuSans-Bold-58" d="M 500 1363 
L 500 3500 
L 1625 3500 
L 1625 3150 
Q 1625 2866 1622 2436 
Q 1619 2006 1619 1863 
Q 1619 1441 1641 1255 
Q 1663 1069 1716 984 
Q 1784 875 1895 815 
Q 2006 756 2150 756 
Q 2500 756 2700 1025 
Q 2900 1294 2900 1772 
L 2900 3500 
L 4019 3500 
L 4019 0 
L 2900 0 
L 2900 506 
Q 2647 200 2364 54 
Q 2081 -91 1741 -91 
Q 1134 -91 817 281 
Q 500 653 500 1363 
z
" transform="scale(0.015625)"/>
     <path id="DejaVuSans-Bold-4c" d="M 538 3500 
L 1656 3500 
L 1656 0 
L 538 0 
L 538 3500 
z
M 538 4863 
L 1656 4863 
L 1656 3950 
L 538 3950 
L 538 4863 
z
" transform="scale(0.015625)"/>
     <path id="DejaVuSans-Bold-b5" d="M 2203 2784 
Q 1831 2784 1636 2517 
Q 1441 2250 1441 1747 
Q 1441 1244 1636 976 
Q 1831 709 2203 709 
Q 2569 709 2762 976 
Q 2956 1244 2956 1747 
Q 2956 2250 2762 2517 
Q 2569 2784 2203 2784 
z
M 2203 3584 
Q 3106 3584 3614 3096 
Q 4122 2609 4122 1747 
Q 4122 884 3614 396 
Q 3106 -91 2203 -91 
Q 1297 -91 786 396 
Q 275 884 275 1747 
Q 275 2609 786 3096 
Q 1297 3584 2203 3584 
z
M 2694 5119 
L 3578 5119 
L 2425 3944 
L 1813 3944 
L 2694 5119 
z
" transform="scale(0.015625)"/>
     <path id="DejaVuSans-Bold-b" d="M 2413 -844 
L 1484 -844 
Q 1006 -72 778 623 
Q 550 1319 550 2003 
Q 550 2688 779 3389 
Q 1009 4091 1484 4856 
L 2413 4856 
Q 2013 4116 1813 3408 
Q 1613 2700 1613 2009 
Q 1613 1319 1811 609 
Q 2009 -100 2413 -844 
z
" transform="scale(0.015625)"/>
     <path id="DejaVuSans-Bold-17" d="M 2356 3675 
L 1038 1722 
L 2356 1722 
L 2356 3675 
z
M 2156 4666 
L 3494 4666 
L 3494 1722 
L 4159 1722 
L 4159 850 
L 3494 850 
L 3494 0 
L 2356 0 
L 2356 850 
L 288 850 
L 288 1881 
L 2156 4666 
z
" transform="scale(0.015625)"/>
     <path id="DejaVuSans-Bold-11" d="M 653 1209 
L 1778 1209 
L 1778 0 
L 653 0 
L 653 1209 
z
" transform="scale(0.015625)"/>
     <path id="DejaVuSans-Bold-18" d="M 678 4666 
L 3669 4666 
L 3669 3781 
L 1638 3781 
L 1638 3059 
Q 1775 3097 1914 3117 
Q 2053 3138 2203 3138 
Q 3056 3138 3531 2711 
Q 4006 2284 4006 1522 
Q 4006 766 3489 337 
Q 2972 -91 2053 -91 
Q 1656 -91 1267 -14 
Q 878 63 494 219 
L 494 1166 
Q 875 947 1217 837 
Q 1559 728 1863 728 
Q 2300 728 2551 942 
Q 2803 1156 2803 1522 
Q 2803 1891 2551 2103 
Q 2300 2316 1863 2316 
Q 1603 2316 1309 2248 
Q 1016 2181 678 2041 
L 678 4666 
z
" transform="scale(0.015625)"/>
     <path id="DejaVuSans-Bold-c" d="M 513 -844 
Q 913 -100 1113 609 
Q 1313 1319 1313 2009 
Q 1313 2700 1113 3408 
Q 913 4116 513 4856 
L 1441 4856 
Q 1916 4091 2145 3389 
Q 2375 2688 2375 2003 
Q 2375 1319 2147 623 
Q 1919 -72 1441 -844 
L 513 -844 
z
" transform="scale(0.015625)"/>
     <path id="DejaVuSans-Bold-1d" d="M 716 3500 
L 1844 3500 
L 1844 2291 
L 716 2291 
L 716 3500 
z
M 716 1209 
L 1844 1209 
L 1844 0 
L 716 0 
L 716 1209 
z
" transform="scale(0.015625)"/>
     <path id="DejaVuSans-Bold-50" d="M 3781 2919 
Q 3994 3244 4286 3414 
Q 4578 3584 4928 3584 
Q 5531 3584 5847 3212 
Q 6163 2841 6163 2131 
L 6163 0 
L 5038 0 
L 5038 1825 
Q 5041 1866 5042 1909 
Q 5044 1953 5044 2034 
Q 5044 2406 4934 2573 
Q 4825 2741 4581 2741 
Q 4263 2741 4089 2478 
Q 3916 2216 3909 1719 
L 3909 0 
L 2784 0 
L 2784 1825 
Q 2784 2406 2684 2573 
Q 2584 2741 2328 2741 
Q 2006 2741 1831 2477 
Q 1656 2213 1656 1722 
L 1656 0 
L 531 0 
L 531 3500 
L 1656 3500 
L 1656 2988 
Q 1863 3284 2130 3434 
Q 2397 3584 2719 3584 
Q 3081 3584 3359 3409 
Q 3638 3234 3781 2919 
z
" transform="scale(0.015625)"/>
     <path id="DejaVuSans-Bold-47" d="M 2919 2988 
L 2919 4863 
L 4044 4863 
L 4044 0 
L 2919 0 
L 2919 506 
Q 2688 197 2409 53 
Q 2131 -91 1766 -91 
Q 1119 -91 703 423 
Q 288 938 288 1747 
Q 288 2556 703 3070 
Q 1119 3584 1766 3584 
Q 2128 3584 2408 3439 
Q 2688 3294 2919 2988 
z
M 2181 722 
Q 2541 722 2730 984 
Q 2919 1247 2919 1747 
Q 2919 2247 2730 2509 
Q 2541 2772 2181 2772 
Q 1825 2772 1636 2509 
Q 1447 2247 1447 1747 
Q 1447 1247 1636 984 
Q 1825 722 2181 722 
z
" transform="scale(0.015625)"/>
    </defs>
    <use xlink:href="#DejaVuSans-Bold-30"/>
    <use xlink:href="#DejaVuSans-Bold-48" transform="translate(99.515625 0)"/>
    <use xlink:href="#DejaVuSans-Bold-51" transform="translate(167.34375 0)"/>
    <use xlink:href="#DejaVuSans-Bold-56" transform="translate(238.53125 0)"/>
    <use xlink:href="#DejaVuSans-Bold-44" transform="translate(298.046875 0)"/>
    <use xlink:href="#DejaVuSans-Bold-4d" transform="translate(365.53125 0)"/>
    <use xlink:href="#DejaVuSans-Bold-48" transform="translate(399.8125 0)"/>
    <use xlink:href="#DejaVuSans-Bold-56" transform="translate(467.640625 0)"/>
    <use xlink:href="#DejaVuSans-Bold-3" transform="translate(527.15625 0)"/>
    <use xlink:href="#DejaVuSans-Bold-48" transform="translate(561.96875 0)"/>
    <use xlink:href="#DejaVuSans-Bold-51" transform="translate(629.796875 0)"/>
    <use xlink:href="#DejaVuSans-Bold-57" transform="translate(700.984375 0)"/>
    <use xlink:href="#DejaVuSans-Bold-55" transform="translate(748.78125 0)"/>
    <use xlink:href="#DejaVuSans-Bold-48" transform="translate(798.09375 0)"/>
    <use xlink:href="#DejaVuSans-Bold-3" transform="translate(865.921875 0)"/>
    <use xlink:href="#DejaVuSans-Bold-44" transform="translate(900.734375 0)"/>
    <use xlink:href="#DejaVuSans-Bold-4a" transform="translate(968.21875 0)"/>
    <use xlink:href="#DejaVuSans-Bold-48" transform="translate(1039.796875 0)"/>
    <use xlink:href="#DejaVuSans-Bold-51" transform="translate(1107.625 0)"/>
    <use xlink:href="#DejaVuSans-Bold-57" transform="translate(1178.8125 0)"/>
    <use xlink:href="#DejaVuSans-Bold-48" transform="translate(1226.609375 0)"/>
    <use xlink:href="#DejaVuSans-Bold-56" transform="translate(1294.4375 0)"/>
    <use xlink:href="#DejaVuSans-Bold-3" transform="translate(1353.953125 0)"/>
    <use xlink:href="#DejaVuSans-Bold-53" transform="translate(1388.765625 0)"/>
    <use xlink:href="#DejaVuSans-Bold-52" transform="translate(1460.34375 0)"/>
    <use xlink:href="#DejaVuSans-Bold-55" transform="translate(1529.046875 0)"/>
    <use xlink:href="#DejaVuSans-Bold-3" transform="translate(1578.359375 0)"/>
    <use xlink:href="#DejaVuSans-Bold-48" transform="translate(1613.171875 0)"/>
    <use xlink:href="#DejaVuSans-Bold-4d" transform="translate(1681 0)"/>
    <use xlink:href="#DejaVuSans-Bold-48" transform="translate(1715.28125 0)"/>
    <use xlink:href="#DejaVuSans-Bold-46" transform="translate(1783.109375 0)"/>
    <use xlink:href="#DejaVuSans-Bold-58" transform="translate(1842.390625 0)"/>
    <use xlink:href="#DejaVuSans-Bold-46" transform="translate(1913.578125 0)"/>
    <use xlink:href="#DejaVuSans-Bold-4c" transform="translate(1972.859375 0)"/>
    <use xlink:href="#DejaVuSans-Bold-b5" transform="translate(2007.140625 0)"/>
    <use xlink:href="#DejaVuSans-Bold-51" transform="translate(2075.84375 0)"/>
    <use xlink:href="#DejaVuSans-Bold-3" transform="translate(2147.03125 0)"/>
    <use xlink:href="#DejaVuSans-Bold-b" transform="translate(2181.84375 0)"/>
    <use xlink:href="#DejaVuSans-Bold-30" transform="translate(2227.546875 0)"/>
    <use xlink:href="#DejaVuSans-Bold-17" transform="translate(2327.0625 0)"/>
    <use xlink:href="#DejaVuSans-Bold-11" transform="translate(2396.640625 0)"/>
    <use xlink:href="#DejaVuSans-Bold-18" transform="translate(2434.625 0)"/>
    <use xlink:href="#DejaVuSans-Bold-c" transform="translate(2504.203125 0)"/>
    <use xlink:href="#DejaVuSans-Bold-1d" transform="translate(2549.90625 0)"/>
    <use xlink:href="#DejaVuSans-Bold-3" transform="translate(2589.890625 0)"/>
    <use xlink:href="#DejaVuSans-Bold-50" transform="translate(2624.703125 0)"/>
    <use xlink:href="#DejaVuSans-Bold-48" transform="translate(2728.90625 0)"/>
    <use xlink:href="#DejaVuSans-Bold-47" transform="translate(2796.734375 0)"/>
    <use xlink:href="#DejaVuSans-Bold-4c" transform="translate(2868.3125 0)"/>
    <use xlink:href="#DejaVuSans-Bold-44" transform="translate(2902.59375 0)"/>
    <use xlink:href="#DejaVuSans-Bold-51" transform="translate(2970.078125 0)"/>
    <use xlink:href="#DejaVuSans-Bold-44" transform="translate(3041.265625 0)"/>
    <use xlink:href="#DejaVuSans-Bold-3" transform="translate(3108.75 0)"/>
    <use xlink:href="#DejaVuSans-Bold-48" transform="translate(3143.5625 0)"/>
    <use xlink:href="#DejaVuSans-Bold-51" transform="translate(3211.390625 0)"/>
    <use xlink:href="#DejaVuSans-Bold-57" transform="translate(3282.578125 0)"/>
    <use xlink:href="#DejaVuSans-Bold-55" transform="translate(3330.375 0)"/>
    <use xlink:href="#DejaVuSans-Bold-48" transform="translate(3379.6875 0)"/>
    <use xlink:href="#DejaVuSans-Bold-3" transform="translate(3447.515625 0)"/>
    <use xlink:href="#DejaVuSans-Bold-57" transform="translate(3482.328125 0)"/>
    <use xlink:href="#DejaVuSans-Bold-44" transform="translate(3530.125 0)"/>
    <use xlink:href="#DejaVuSans-Bold-55" transform="translate(3597.609375 0)"/>
    <use xlink:href="#DejaVuSans-Bold-48" transform="translate(3646.921875 0)"/>
    <use xlink:href="#DejaVuSans-Bold-44" transform="translate(3714.75 0)"/>
    <use xlink:href="#DejaVuSans-Bold-56" transform="translate(3782.234375 0)"/>
   </g>
  </g>
  <g id="text_21">
   <!-- Lectura: solo B2 y B3 intercambian mensajes entre agentes; B0 y B1 tienen un único agente. -->
   <g transform="translate(5.76 241.654125) scale(0.08 -0.08)">
    <defs>
     <path id="DejaVuSans-Oblique-2f" d="M 1075 4666 
L 1709 4666 
L 909 525 
L 3181 525 
L 3078 0 
L 172 0 
L 1075 4666 
z
" transform="scale(0.015625)"/>
     <path id="DejaVuSans-Oblique-48" d="M 3078 2063 
Q 3088 2113 3092 2166 
Q 3097 2219 3097 2272 
Q 3097 2653 2873 2875 
Q 2650 3097 2266 3097 
Q 1838 3097 1509 2826 
Q 1181 2556 1013 2059 
L 3078 2063 
z
M 3578 1613 
L 903 1613 
Q 884 1494 878 1425 
Q 872 1356 872 1306 
Q 872 872 1139 634 
Q 1406 397 1894 397 
Q 2269 397 2603 481 
Q 2938 566 3225 728 
L 3116 159 
Q 2806 34 2476 -28 
Q 2147 -91 1806 -91 
Q 1078 -91 686 257 
Q 294 606 294 1247 
Q 294 1794 489 2264 
Q 684 2734 1063 3103 
Q 1306 3334 1642 3459 
Q 1978 3584 2356 3584 
Q 2950 3584 3301 3228 
Q 3653 2872 3653 2272 
Q 3653 2128 3634 1964 
Q 3616 1800 3578 1613 
z
" transform="scale(0.015625)"/>
     <path id="DejaVuSans-Oblique-46" d="M 3431 3366 
L 3316 2797 
Q 3109 2947 2876 3022 
Q 2644 3097 2394 3097 
Q 2119 3097 1870 3000 
Q 1622 2903 1453 2725 
Q 1184 2453 1037 2087 
Q 891 1722 891 1331 
Q 891 859 1127 628 
Q 1363 397 1844 397 
Q 2081 397 2348 469 
Q 2616 541 2906 684 
L 2797 116 
Q 2547 13 2283 -39 
Q 2019 -91 1741 -91 
Q 1044 -91 669 257 
Q 294 606 294 1253 
Q 294 1797 489 2255 
Q 684 2713 1069 3078 
Q 1331 3328 1684 3456 
Q 2038 3584 2456 3584 
Q 2700 3584 2940 3529 
Q 3181 3475 3431 3366 
z
" transform="scale(0.015625)"/>
     <path id="DejaVuSans-Oblique-57" d="M 2706 3500 
L 2619 3053 
L 1472 3053 
L 1100 1153 
Q 1081 1047 1072 975 
Q 1063 903 1063 863 
Q 1063 663 1183 572 
Q 1303 481 1569 481 
L 2150 481 
L 2053 0 
L 1503 0 
Q 991 0 739 200 
Q 488 400 488 806 
Q 488 878 497 964 
Q 506 1050 525 1153 
L 897 3053 
L 409 3053 
L 500 3500 
L 978 3500 
L 1172 4494 
L 1747 4494 
L 1556 3500 
L 2706 3500 
z
" transform="scale(0.015625)"/>
     <path id="DejaVuSans-Oblique-58" d="M 428 1388 
L 838 3500 
L 1416 3500 
L 1006 1409 
Q 975 1256 961 1147 
Q 947 1038 947 966 
Q 947 700 1109 554 
Q 1272 409 1569 409 
Q 2031 409 2368 721 
Q 2706 1034 2809 1563 
L 3194 3500 
L 3769 3500 
L 3091 0 
L 2516 0 
L 2631 550 
Q 2388 244 2052 76 
Q 1716 -91 1338 -91 
Q 878 -91 622 161 
Q 366 413 366 863 
Q 366 956 381 1097 
Q 397 1238 428 1388 
z
" transform="scale(0.015625)"/>
     <path id="DejaVuSans-Oblique-55" d="M 2853 2969 
Q 2766 3016 2653 3041 
Q 2541 3066 2413 3066 
Q 1953 3066 1609 2717 
Q 1266 2369 1153 1784 
L 800 0 
L 225 0 
L 909 3500 
L 1484 3500 
L 1375 2956 
Q 1603 3259 1920 3421 
Q 2238 3584 2597 3584 
Q 2691 3584 2781 3573 
Q 2872 3563 2963 3538 
L 2853 2969 
z
" transform="scale(0.015625)"/>
     <path id="DejaVuSans-Oblique-44" d="M 3438 1997 
L 3047 0 
L 2472 0 
L 2578 531 
Q 2325 219 2001 64 
Q 1678 -91 1281 -91 
Q 834 -91 548 182 
Q 263 456 263 884 
Q 263 1497 752 1853 
Q 1241 2209 2100 2209 
L 2900 2209 
L 2931 2363 
Q 2938 2388 2941 2417 
Q 2944 2447 2944 2509 
Q 2944 2788 2717 2942 
Q 2491 3097 2081 3097 
Q 1800 3097 1504 3025 
Q 1209 2953 897 2809 
L 997 3341 
Q 1322 3463 1633 3523 
Q 1944 3584 2234 3584 
Q 2853 3584 3176 3315 
Q 3500 3047 3500 2534 
Q 3500 2431 3484 2292 
Q 3469 2153 3438 1997 
z
M 2816 1759 
L 2241 1759 
Q 1534 1759 1195 1570 
Q 856 1381 856 984 
Q 856 709 1029 553 
Q 1203 397 1509 397 
Q 1978 397 2328 733 
Q 2678 1069 2791 1631 
L 2816 1759 
z
" transform="scale(0.015625)"/>
     <path id="DejaVuSans-Oblique-1d" d="M 978 3309 
L 1638 3309 
L 1484 2516 
L 825 2516 
L 978 3309 
z
M 488 794 
L 1147 794 
L 991 0 
L 331 0 
L 488 794 
z
" transform="scale(0.015625)"/>
     <path id="DejaVuSans-Oblique-3" transform="scale(0.015625)"/>
     <path id="DejaVuSans-Oblique-56" d="M 3200 3397 
L 3091 2853 
Q 2863 2978 2609 3040 
Q 2356 3103 2088 3103 
Q 1634 3103 1373 2948 
Q 1113 2794 1113 2528 
Q 1113 2219 1719 2053 
Q 1766 2041 1788 2034 
L 1972 1978 
Q 2547 1819 2739 1644 
Q 2931 1469 2931 1166 
Q 2931 609 2489 259 
Q 2047 -91 1331 -91 
Q 1053 -91 747 -37 
Q 441 16 72 128 
L 184 722 
Q 500 559 806 475 
Q 1113 391 1394 391 
Q 1816 391 2080 572 
Q 2344 753 2344 1031 
Q 2344 1331 1650 1516 
L 1591 1531 
L 1394 1581 
Q 956 1697 753 1886 
Q 550 2075 550 2369 
Q 550 2928 970 3256 
Q 1391 3584 2113 3584 
Q 2397 3584 2667 3537 
Q 2938 3491 3200 3397 
z
" transform="scale(0.015625)"/>
     <path id="DejaVuSans-Oblique-52" d="M 1625 -91 
Q 1009 -91 651 289 
Q 294 669 294 1325 
Q 294 1706 417 2101 
Q 541 2497 738 2766 
Q 1047 3184 1428 3384 
Q 1809 3584 2291 3584 
Q 2888 3584 3255 3212 
Q 3622 2841 3622 2241 
Q 3622 1825 3500 1412 
Q 3378 1000 3181 728 
Q 2875 309 2494 109 
Q 2113 -91 1625 -91 
z
M 891 1344 
Q 891 869 1089 633 
Q 1288 397 1691 397 
Q 2269 397 2648 901 
Q 3028 1406 3028 2181 
Q 3028 2634 2825 2865 
Q 2622 3097 2228 3097 
Q 1903 3097 1650 2945 
Q 1397 2794 1197 2484 
Q 1050 2253 970 1956 
Q 891 1659 891 1344 
z
" transform="scale(0.015625)"/>
     <path id="DejaVuSans-Oblique-4f" d="M 1172 4863 
L 1747 4863 
L 800 0 
L 225 0 
L 1172 4863 
z
" transform="scale(0.015625)"/>
     <path id="DejaVuSans-Oblique-25" d="M 1081 4666 
L 2694 4666 
Q 3350 4666 3675 4422 
Q 4000 4178 4000 3688 
Q 4000 3238 3720 2911 
Q 3441 2584 2988 2516 
Q 3375 2428 3569 2181 
Q 3763 1934 3763 1522 
Q 3763 819 3242 409 
Q 2722 0 1819 0 
L 172 0 
L 1081 4666 
z
M 1234 2228 
L 903 519 
L 1919 519 
Q 2491 519 2800 781 
Q 3109 1044 3109 1522 
Q 3109 1891 2904 2059 
Q 2700 2228 2247 2228 
L 1234 2228 
z
M 1606 4147 
L 1331 2741 
L 2272 2741 
Q 2775 2741 3058 2959 
Q 3341 3178 3341 3566 
Q 3341 3869 3150 4008 
Q 2959 4147 2541 4147 
L 1606 4147 
z
" transform="scale(0.015625)"/>
     <path id="DejaVuSans-Oblique-15" d="M 2950 2253 
L 934 525 
L 3163 525 
L 3053 0 
L 25 0 
L 128 531 
L 2234 2338 
Q 2656 2703 2832 2979 
Q 3009 3256 3009 3547 
Q 3009 3850 2796 4040 
Q 2584 4231 2241 4231 
Q 1944 4231 1581 4125 
Q 1219 4019 806 3816 
L 922 4441 
Q 1309 4594 1662 4672 
Q 2016 4750 2316 4750 
Q 2928 4750 3301 4425 
Q 3675 4100 3675 3572 
Q 3675 3216 3497 2892 
Q 3319 2569 2950 2253 
z
" transform="scale(0.015625)"/>
     <path id="DejaVuSans-Oblique-5c" d="M 1588 -325 
Q 1188 -997 936 -1164 
Q 684 -1331 294 -1331 
L -159 -1331 
L -63 -850 
L 269 -850 
Q 509 -850 678 -719 
Q 847 -588 1056 -206 
L 1234 128 
L 459 3500 
L 1069 3500 
L 1650 819 
L 3256 3500 
L 3859 3500 
L 1588 -325 
z
" transform="scale(0.015625)"/>
     <path id="DejaVuSans-Oblique-16" d="M 1013 4550 
Q 1356 4650 1679 4700 
Q 2003 4750 2316 4750 
Q 2934 4750 3296 4475 
Q 3659 4200 3659 3738 
Q 3659 3284 3373 2959 
Q 3088 2634 2584 2516 
Q 2978 2403 3162 2165 
Q 3347 1928 3347 1538 
Q 3347 1163 3167 834 
Q 2988 506 2650 269 
Q 2394 88 2037 -1 
Q 1681 -91 1216 -91 
Q 922 -91 622 -33 
Q 322 25 13 141 
L 128 738 
Q 422 575 720 495 
Q 1019 416 1331 416 
Q 1947 416 2330 733 
Q 2713 1050 2713 1556 
Q 2713 1881 2469 2057 
Q 2225 2234 1772 2234 
L 1228 2234 
L 1325 2747 
L 1900 2747 
Q 2419 2747 2717 2984 
Q 3016 3222 3016 3628 
Q 3016 3922 2797 4083 
Q 2578 4244 2181 4244 
Q 1881 4244 1567 4180 
Q 1253 4116 916 3988 
L 1013 4550 
z
" transform="scale(0.015625)"/>
     <path id="DejaVuSans-Oblique-4c" d="M 1172 4863 
L 1747 4863 
L 1606 4134 
L 1031 4134 
L 1172 4863 
z
M 909 3500 
L 1484 3500 
L 800 0 
L 225 0 
L 909 3500 
z
" transform="scale(0.015625)"/>
     <path id="DejaVuSans-Oblique-51" d="M 3566 2113 
L 3156 0 
L 2578 0 
L 2988 2091 
Q 3016 2238 3031 2350 
Q 3047 2463 3047 2528 
Q 3047 2791 2881 2937 
Q 2716 3084 2419 3084 
Q 1956 3084 1622 2776 
Q 1288 2469 1184 1941 
L 800 0 
L 225 0 
L 903 3500 
L 1478 3500 
L 1363 2950 
Q 1603 3253 1940 3418 
Q 2278 3584 2650 3584 
Q 3113 3584 3367 3334 
Q 3622 3084 3622 2631 
Q 3622 2519 3608 2391 
Q 3594 2263 3566 2113 
z
" transform="scale(0.015625)"/>
     <path id="DejaVuSans-Oblique-50" d="M 5747 2113 
L 5338 0 
L 4763 0 
L 5166 2094 
Q 5191 2228 5203 2325 
Q 5216 2422 5216 2491 
Q 5216 2772 5059 2928 
Q 4903 3084 4622 3084 
Q 4203 3084 3875 2770 
Q 3547 2456 3450 1953 
L 3066 0 
L 2491 0 
L 2900 2094 
Q 2925 2209 2937 2307 
Q 2950 2406 2950 2484 
Q 2950 2769 2794 2926 
Q 2638 3084 2363 3084 
Q 1938 3084 1609 2770 
Q 1281 2456 1184 1953 
L 800 0 
L 225 0 
L 909 3500 
L 1484 3500 
L 1375 2956 
Q 1609 3263 1923 3423 
Q 2238 3584 2597 3584 
Q 2978 3584 3223 3384 
Q 3469 3184 3519 2828 
Q 3781 3197 4126 3390 
Q 4472 3584 4856 3584 
Q 5306 3584 5551 3325 
Q 5797 3066 5797 2591 
Q 5797 2488 5784 2364 
Q 5772 2241 5747 2113 
z
" transform="scale(0.015625)"/>
     <path id="DejaVuSans-Oblique-45" d="M 3169 2138 
Q 3169 2591 2961 2847 
Q 2753 3103 2388 3103 
Q 2122 3103 1889 2973 
Q 1656 2844 1484 2597 
Q 1303 2338 1198 1995 
Q 1094 1653 1094 1313 
Q 1094 881 1298 636 
Q 1503 391 1863 391 
Q 2134 391 2365 517 
Q 2597 644 2772 891 
Q 2950 1147 3059 1487 
Q 3169 1828 3169 2138 
z
M 1381 2969 
Q 1594 3256 1914 3420 
Q 2234 3584 2584 3584 
Q 3122 3584 3439 3221 
Q 3756 2859 3756 2241 
Q 3756 1734 3570 1259 
Q 3384 784 3041 416 
Q 2816 172 2522 40 
Q 2228 -91 1906 -91 
Q 1566 -91 1316 65 
Q 1066 222 909 531 
L 806 0 
L 231 0 
L 1178 4863 
L 1753 4863 
L 1381 2969 
z
" transform="scale(0.015625)"/>
     <path id="DejaVuSans-Oblique-4d" d="M 928 3500 
L 1503 3500 
L 813 -63 
L 809 -78 
Q 694 -675 544 -897 
Q 403 -1106 132 -1218 
Q -138 -1331 -506 -1331 
L -722 -1331 
L -628 -844 
L -481 -844 
Q -144 -844 -1 -703 
Q 141 -563 238 -63 
L 928 3500 
z
M 1197 4863 
L 1772 4863 
L 1631 4134 
L 1056 4134 
L 1197 4863 
z
" transform="scale(0.015625)"/>
     <path id="DejaVuSans-Oblique-4a" d="M 3816 3500 
L 3219 434 
Q 3047 -456 2561 -893 
Q 2075 -1331 1253 -1331 
Q 950 -1331 690 -1286 
Q 431 -1241 206 -1147 
L 313 -588 
Q 525 -725 762 -790 
Q 1000 -856 1269 -856 
Q 1816 -856 2167 -557 
Q 2519 -259 2631 300 
L 2681 563 
Q 2441 288 2122 144 
Q 1803 0 1434 0 
Q 903 0 598 351 
Q 294 703 294 1319 
Q 294 1803 478 2267 
Q 663 2731 997 3091 
Q 1219 3328 1514 3456 
Q 1809 3584 2131 3584 
Q 2484 3584 2746 3420 
Q 3009 3256 3138 2956 
L 3238 3500 
L 3816 3500 
z
M 2950 2216 
Q 2950 2641 2750 2872 
Q 2550 3103 2181 3103 
Q 1953 3103 1747 3012 
Q 1541 2922 1394 2759 
Q 1156 2491 1023 2127 
Q 891 1763 891 1375 
Q 891 944 1092 712 
Q 1294 481 1672 481 
Q 2219 481 2584 976 
Q 2950 1472 2950 2216 
z
" transform="scale(0.015625)"/>
     <path id="DejaVuSans-Oblique-1e" d="M 563 794 
L 1222 794 
L 1113 256 
L 409 -744 
L 6 -744 
L 453 256 
L 563 794 
z
M 1050 3309 
L 1709 3309 
L 1556 2516 
L 897 2516 
L 1050 3309 
z
" transform="scale(0.015625)"/>
     <path id="DejaVuSans-Oblique-13" d="M 2444 4750 
Q 3078 4750 3414 4328 
Q 3750 3906 3750 3116 
Q 3750 2516 3592 1923 
Q 3434 1331 3150 863 
Q 2859 394 2467 151 
Q 2075 -91 1600 -91 
Q 988 -91 653 334 
Q 319 759 319 1544 
Q 319 2138 480 2733 
Q 641 3328 928 3794 
Q 1216 4263 1602 4506 
Q 1988 4750 2444 4750 
z
M 2406 4250 
Q 2169 4250 1955 4123 
Q 1741 3997 1569 3750 
Q 1281 3338 1111 2720 
Q 941 2103 941 1453 
Q 941 938 1123 673 
Q 1306 409 1663 409 
Q 1913 409 2125 536 
Q 2338 663 2509 909 
Q 2794 1319 2961 1936 
Q 3128 2553 3128 3206 
Q 3128 3722 2945 3986 
Q 2763 4250 2406 4250 
z
" transform="scale(0.015625)"/>
     <path id="DejaVuSans-Oblique-14" d="M 416 531 
L 1447 531 
L 2144 4122 
L 978 3897 
L 1088 4441 
L 2247 4666 
L 2881 4666 
L 2075 531 
L 3103 531 
L 3003 0 
L 313 0 
L 416 531 
z
" transform="scale(0.015625)"/>
     <path id="DejaVuSans-Oblique-bc" d="M 428 1388 
L 838 3500 
L 1416 3500 
L 1006 1409 
Q 975 1256 961 1147 
Q 947 1038 947 966 
Q 947 700 1109 554 
Q 1272 409 1569 409 
Q 2031 409 2368 721 
Q 2706 1034 2809 1563 
L 3194 3500 
L 3769 3500 
L 3091 0 
L 2516 0 
L 2631 550 
Q 2388 244 2052 76 
Q 1716 -91 1338 -91 
Q 878 -91 622 161 
Q 366 413 366 863 
Q 366 956 381 1097 
Q 397 1238 428 1388 
z
M 3050 5119 
L 3672 5119 
L 2425 3944 
L 1944 3944 
L 3050 5119 
z
" transform="scale(0.015625)"/>
     <path id="DejaVuSans-Oblique-11" d="M 525 794 
L 1184 794 
L 1031 0 
L 372 0 
L 525 794 
z
" transform="scale(0.015625)"/>
    </defs>
    <use xlink:href="#DejaVuSans-Oblique-2f"/>
    <use xlink:href="#DejaVuSans-Oblique-48" transform="translate(55.71875 0)"/>
    <use xlink:href="#DejaVuSans-Oblique-46" transform="translate(117.25 0)"/>
    <use xlink:href="#DejaVuSans-Oblique-57" transform="translate(172.234375 0)"/>
    <use xlink:href="#DejaVuSans-Oblique-58" transform="translate(211.4375 0)"/>
    <use xlink:href="#DejaVuSans-Oblique-55" transform="translate(274.8125 0)"/>
    <use xlink:href="#DejaVuSans-Oblique-44" transform="translate(315.921875 0)"/>
    <use xlink:href="#DejaVuSans-Oblique-1d" transform="translate(377.203125 0)"/>
    <use xlink:href="#DejaVuSans-Oblique-3" transform="translate(410.890625 0)"/>
    <use xlink:href="#DejaVuSans-Oblique-56" transform="translate(442.671875 0)"/>
    <use xlink:href="#DejaVuSans-Oblique-52" transform="translate(494.765625 0)"/>
    <use xlink:href="#DejaVuSans-Oblique-4f" transform="translate(555.953125 0)"/>
    <use xlink:href="#DejaVuSans-Oblique-52" transform="translate(583.734375 0)"/>
    <use xlink:href="#DejaVuSans-Oblique-3" transform="translate(644.921875 0)"/>
    <use xlink:href="#DejaVuSans-Oblique-25" transform="translate(676.703125 0)"/>
    <use xlink:href="#DejaVuSans-Oblique-15" transform="translate(745.3125 0)"/>
    <use xlink:href="#DejaVuSans-Oblique-3" transform="translate(808.9375 0)"/>
    <use xlink:href="#DejaVuSans-Oblique-5c" transform="translate(840.71875 0)"/>
    <use xlink:href="#DejaVuSans-Oblique-3" transform="translate(899.90625 0)"/>
    <use xlink:href="#DejaVuSans-Oblique-25" transform="translate(931.6875 0)"/>
    <use xlink:href="#DejaVuSans-Oblique-16" transform="translate(1000.296875 0)"/>
    <use xlink:href="#DejaVuSans-Oblique-3" transform="translate(1063.921875 0)"/>
    <use xlink:href="#DejaVuSans-Oblique-4c" transform="translate(1095.703125 0)"/>
    <use xlink:href="#DejaVuSans-Oblique-51" transform="translate(1123.484375 0)"/>
    <use xlink:href="#DejaVuSans-Oblique-57" transform="translate(1186.859375 0)"/>
    <use xlink:href="#DejaVuSans-Oblique-48" transform="translate(1226.0625 0)"/>
    <use xlink:href="#DejaVuSans-Oblique-55" transform="translate(1287.59375 0)"/>
    <use xlink:href="#DejaVuSans-Oblique-46" transform="translate(1328.703125 0)"/>
    <use xlink:href="#DejaVuSans-Oblique-44" transform="translate(1383.6875 0)"/>
    <use xlink:href="#DejaVuSans-Oblique-50" transform="translate(1444.96875 0)"/>
    <use xlink:href="#DejaVuSans-Oblique-45" transform="translate(1542.375 0)"/>
    <use xlink:href="#DejaVuSans-Oblique-4c" transform="translate(1605.859375 0)"/>
    <use xlink:href="#DejaVuSans-Oblique-44" transform="translate(1633.640625 0)"/>
    <use xlink:href="#DejaVuSans-Oblique-51" transform="translate(1694.921875 0)"/>
    <use xlink:href="#DejaVuSans-Oblique-3" transform="translate(1758.296875 0)"/>
    <use xlink:href="#DejaVuSans-Oblique-50" transform="translate(1790.078125 0)"/>
    <use xlink:href="#DejaVuSans-Oblique-48" transform="translate(1887.484375 0)"/>
    <use xlink:href="#DejaVuSans-Oblique-51" transform="translate(1949.015625 0)"/>
    <use xlink:href="#DejaVuSans-Oblique-56" transform="translate(2012.390625 0)"/>
    <use xlink:href="#DejaVuSans-Oblique-44" transform="translate(2064.484375 0)"/>
    <use xlink:href="#DejaVuSans-Oblique-4d" transform="translate(2125.765625 0)"/>
    <use xlink:href="#DejaVuSans-Oblique-48" transform="translate(2153.546875 0)"/>
    <use xlink:href="#DejaVuSans-Oblique-56" transform="translate(2215.078125 0)"/>
    <use xlink:href="#DejaVuSans-Oblique-3" transform="translate(2267.171875 0)"/>
    <use xlink:href="#DejaVuSans-Oblique-48" transform="translate(2298.953125 0)"/>
    <use xlink:href="#DejaVuSans-Oblique-51" transform="translate(2360.484375 0)"/>
    <use xlink:href="#DejaVuSans-Oblique-57" transform="translate(2423.859375 0)"/>
    <use xlink:href="#DejaVuSans-Oblique-55" transform="translate(2463.0625 0)"/>
    <use xlink:href="#DejaVuSans-Oblique-48" transform="translate(2504.171875 0)"/>
    <use xlink:href="#DejaVuSans-Oblique-3" transform="translate(2565.703125 0)"/>
    <use xlink:href="#DejaVuSans-Oblique-44" transform="translate(2597.484375 0)"/>
    <use xlink:href="#DejaVuSans-Oblique-4a" transform="translate(2658.765625 0)"/>
    <use xlink:href="#DejaVuSans-Oblique-48" transform="translate(2722.25 0)"/>
    <use xlink:href="#DejaVuSans-Oblique-51" transform="translate(2783.78125 0)"/>
    <use xlink:href="#DejaVuSans-Oblique-57" transform="translate(2847.15625 0)"/>
    <use xlink:href="#DejaVuSans-Oblique-48" transform="translate(2886.359375 0)"/>
    <use xlink:href="#DejaVuSans-Oblique-56" transform="translate(2947.890625 0)"/>
    <use xlink:href="#DejaVuSans-Oblique-1e" transform="translate(2999.984375 0)"/>
    <use xlink:href="#DejaVuSans-Oblique-3" transform="translate(3033.671875 0)"/>
    <use xlink:href="#DejaVuSans-Oblique-25" transform="translate(3065.453125 0)"/>
    <use xlink:href="#DejaVuSans-Oblique-13" transform="translate(3134.0625 0)"/>
    <use xlink:href="#DejaVuSans-Oblique-3" transform="translate(3197.6875 0)"/>
    <use xlink:href="#DejaVuSans-Oblique-5c" transform="translate(3229.46875 0)"/>
    <use xlink:href="#DejaVuSans-Oblique-3" transform="translate(3288.65625 0)"/>
    <use xlink:href="#DejaVuSans-Oblique-25" transform="translate(3320.4375 0)"/>
    <use xlink:href="#DejaVuSans-Oblique-14" transform="translate(3389.046875 0)"/>
    <use xlink:href="#DejaVuSans-Oblique-3" transform="translate(3452.671875 0)"/>
    <use xlink:href="#DejaVuSans-Oblique-57" transform="translate(3484.453125 0)"/>
    <use xlink:href="#DejaVuSans-Oblique-4c" transform="translate(3523.65625 0)"/>
    <use xlink:href="#DejaVuSans-Oblique-48" transform="translate(3551.4375 0)"/>
    <use xlink:href="#DejaVuSans-Oblique-51" transform="translate(3612.96875 0)"/>
    <use xlink:href="#DejaVuSans-Oblique-48" transform="translate(3676.34375 0)"/>
    <use xlink:href="#DejaVuSans-Oblique-51" transform="translate(3737.875 0)"/>
    <use xlink:href="#DejaVuSans-Oblique-3" transform="translate(3801.25 0)"/>
    <use xlink:href="#DejaVuSans-Oblique-58" transform="translate(3833.03125 0)"/>
    <use xlink:href="#DejaVuSans-Oblique-51" transform="translate(3896.40625 0)"/>
    <use xlink:href="#DejaVuSans-Oblique-3" transform="translate(3959.78125 0)"/>
    <use xlink:href="#DejaVuSans-Oblique-bc" transform="translate(3991.5625 0)"/>
    <use xlink:href="#DejaVuSans-Oblique-51" transform="translate(4054.9375 0)"/>
    <use xlink:href="#DejaVuSans-Oblique-4c" transform="translate(4118.3125 0)"/>
    <use xlink:href="#DejaVuSans-Oblique-46" transform="translate(4146.09375 0)"/>
    <use xlink:href="#DejaVuSans-Oblique-52" transform="translate(4201.078125 0)"/>
    <use xlink:href="#DejaVuSans-Oblique-3" transform="translate(4262.265625 0)"/>
    <use xlink:href="#DejaVuSans-Oblique-44" transform="translate(4294.046875 0)"/>
    <use xlink:href="#DejaVuSans-Oblique-4a" transform="translate(4355.328125 0)"/>
    <use xlink:href="#DejaVuSans-Oblique-48" transform="translate(4418.8125 0)"/>
    <use xlink:href="#DejaVuSans-Oblique-51" transform="translate(4480.34375 0)"/>
    <use xlink:href="#DejaVuSans-Oblique-57" transform="translate(4543.71875 0)"/>
    <use xlink:href="#DejaVuSans-Oblique-48" transform="translate(4582.921875 0)"/>
    <use xlink:href="#DejaVuSans-Oblique-11" transform="translate(4644.453125 0)"/>
   </g>
  </g>
 </g>
 <defs>
  <clipPath id="p07d30a736f">
   <rect x="44.482109" y="30.722578" width="521.797891" height="177.483313"/>
  </clipPath>
 </defs>
</svg>
