<?xml version="1.0" encoding="utf-8" standalone="no"?>
<!DOCTYPE svg PUBLIC "-//W3C//DTD SVG 1.1//EN"
  "http://www.w3.org/Graphics/SVG/1.1/DTD/svg11.dtd">
<svg xmlns:xlink="http://www.w3.org/1999/xlink" width="648pt" height="230.4pt" viewBox="0 0 648 230.4" xmlns="http://www.w3.org/2000/svg" version="1.1">
 <metadata>
  <rdf:RDF xmlns:dc="http://purl.org/dc/elements/1.1/" xmlns:cc="http://creativecommons.org/ns#" xmlns:rdf="http://www.w3.org/1999/02/22-rdf-syntax-ns#">
   <cc:Work>
    <dc:type rdf:resource="http://purl.org/dc/dcmitype/StillImage"/>
    <dc:format>image/svg+xml</dc:format>
    <dc:creator>
     <cc:Agent>
      <dc:title>Matplotlib v3.11.2, https://matplotlib.org/</dc:title>
     </cc:Agent>
    </dc:creator>
   </cc:Work>
  </rdf:RDF>
 </metadata>
 <defs>
  <style type="text/css">*{stroke-linejoin: round; stroke-linecap: butt}</style>
 </defs>
 <g id="figure_1">
  <g id="patch_1">
   <path d="M 0 230.4 
L 648 230.4 
L 648 0 
L 0 0 
z
" style="fill: #fcfcfb"/>
  </g>
  <g id="axes_1">
   <g id="patch_2">
    <path d="M 41.24 191.317891 
L 180.585 191.317891 
L 180.585 44.797422 
L 41.24 44.797422 
z
" style="fill: #fcfcfb"/>
   </g>
   <g id="patch_3">
    <path d="M 47.573864 191.317891 
L 74.242763 191.317891 
L 74.242763 166.399444 
L 47.573864 166.399444 
z
" clip-path="url(#pb1ead396cf)" style="fill: #2a78d6; stroke: #fcfcfb; stroke-width: 2; stroke-linejoin: miter"/>
   </g>
   <g id="patch_4">
    <path d="M 80.909988 191.317891 
L 107.578888 191.317891 
L 107.578888 186.334201 
L 80.909988 186.334201 
z
" clip-path="url(#pb1ead396cf)" style="fill: #2a78d6; stroke: #fcfcfb; stroke-width: 2; stroke-linejoin: miter"/>
   </g>
   <g id="patch_5">
    <path d="M 114.246112 191.317891 
L 140.915012 191.317891 
L 140.915012 161.415754 
L 114.246112 161.415754 
z
" clip-path="url(#pb1ead396cf)" style="fill: #2a78d6; stroke: #fcfcfb; stroke-width: 2; stroke-linejoin: miter"/>
   </g>
   <g id="patch_6">
    <path d="M 147.582237 191.317891 
L 174.251136 191.317891 
L 174.251136 51.774587 
L 147.582237 51.774587 
z
" clip-path="url(#pb1ead396cf)" style="fill: #2a78d6; stroke: #fcfcfb; stroke-width: 2; stroke-linejoin: miter"/>
   </g>
   <g id="matplotlib.axis_1">
    <g id="xtick_1">
     <g id="line2d_1">
      <defs>
       <path id="m0841af3d36" d="M 0 0 
L 0 3.5 
" style="stroke: #52514e; stroke-width: 0.8"/>
      </defs>
      <g>
       <use xlink:href="#m0841af3d36" x="60.908313" y="191.317891" style="fill: #52514e; stroke: #52514e; stroke-width: 0.8"/>
      </g>
     </g>
     <g id="text_1">
      <!-- 0 -->
      <g style="fill: #52514e" transform="translate(58.045188 205.155781) scale(0.09 -0.09)">
       <defs>
        <path id="DejaVuSans-13" d="M 2034 4250 
Q 1547 4250 1301 3770 
Q 1056 3291 1056 2328 
Q 1056 1369 1301 889 
Q 1547 409 2034 409 
Q 2525 409 2770 889 
Q 3016 1369 3016 2328 
Q 3016 3291 2770 3770 
Q 2525 4250 2034 4250 
z
M 2034 4750 
Q 2819 4750 3233 4129 
Q 3647 3509 3647 2328 
Q 3647 1150 3233 529 
Q 2819 -91 2034 -91 
Q 1250 -91 836 529 
Q 422 1150 422 2328 
Q 422 3509 836 4129 
Q 1250 4750 2034 4750 
z
" transform="scale(0.015625)"/>
       </defs>
       <use xlink:href="#DejaVuSans-13"/>
      </g>
     </g>
    </g>
    <g id="xtick_2">
     <g id="line2d_2">
      <g>
       <use xlink:href="#m0841af3d36" x="94.244438" y="191.317891" style="fill: #52514e; stroke: #52514e; stroke-width: 0.8"/>
      </g>
     </g>
     <g id="text_2">
      <!-- 1 -->
      <g style="fill: #52514e" transform="translate(91.381313 205.155781) scale(0.09 -0.09)">
       <defs>
        <path id="DejaVuSans-14" d="M 794 531 
L 1825 531 
L 1825 4091 
L 703 3866 
L 703 4441 
L 1819 4666 
L 2450 4666 
L 2450 531 
L 3481 531 
L 3481 0 
L 794 0 
L 794 531 
z
" transform="scale(0.015625)"/>
       </defs>
       <use xlink:href="#DejaVuSans-14"/>
      </g>
     </g>
    </g>
    <g id="xtick_3">
     <g id="line2d_3">
      <g>
       <use xlink:href="#m0841af3d36" x="127.580562" y="191.317891" style="fill: #52514e; stroke: #52514e; stroke-width: 0.8"/>
      </g>
     </g>
     <g id="text_3">
      <!-- 2 -->
      <g style="fill: #52514e" transform="translate(124.717437 205.155781) scale(0.09 -0.09)">
       <defs>
        <path id="DejaVuSans-15" d="M 1228 531 
L 3431 531 
L 3431 0 
L 469 0 
L 469 531 
Q 828 903 1448 1529 
Q 2069 2156 2228 2338 
Q 2531 2678 2651 2914 
Q 2772 3150 2772 3378 
Q 2772 3750 2511 3984 
Q 2250 4219 1831 4219 
Q 1534 4219 1204 4116 
Q 875 4013 500 3803 
L 500 4441 
Q 881 4594 1212 4672 
Q 1544 4750 1819 4750 
Q 2544 4750 2975 4387 
Q 3406 4025 3406 3419 
Q 3406 3131 3298 2873 
Q 3191 2616 2906 2266 
Q 2828 2175 2409 1742 
Q 1991 1309 1228 531 
z
" transform="scale(0.015625)"/>
       </defs>
       <use xlink:href="#DejaVuSans-15"/>
      </g>
     </g>
    </g>
    <g id="xtick_4">
     <g id="line2d_4">
      <g>
       <use xlink:href="#m0841af3d36" x="160.916687" y="191.317891" style="fill: #52514e; stroke: #52514e; stroke-width: 0.8"/>
      </g>
     </g>
     <g id="text_4">
      <!-- 3 -->
      <g style="fill: #52514e" transform="translate(158.053562 205.155781) scale(0.09 -0.09)">
       <defs>
        <path id="DejaVuSans-16" d="M 2597 2516 
Q 3050 2419 3304 2112 
Q 3559 1806 3559 1356 
Q 3559 666 3084 287 
Q 2609 -91 1734 -91 
Q 1441 -91 1130 -33 
Q 819 25 488 141 
L 488 750 
Q 750 597 1062 519 
Q 1375 441 1716 441 
Q 2309 441 2620 675 
Q 2931 909 2931 1356 
Q 2931 1769 2642 2001 
Q 2353 2234 1838 2234 
L 1294 2234 
L 1294 2753 
L 1863 2753 
Q 2328 2753 2575 2939 
Q 2822 3125 2822 3475 
Q 2822 3834 2567 4026 
Q 2313 4219 1838 4219 
Q 1578 4219 1281 4162 
Q 984 4106 628 3988 
L 628 4550 
Q 988 4650 1302 4700 
Q 1616 4750 1894 4750 
Q 2613 4750 3031 4423 
Q 3450 4097 3450 3541 
Q 3450 3153 3228 2886 
Q 3006 2619 2597 2516 
z
" transform="scale(0.015625)"/>
       </defs>
       <use xlink:href="#DejaVuSans-16"/>
      </g>
     </g>
    </g>
    <g id="text_5">
     <!-- Repeticiones exitosas -->
     <g style="fill: #52514e" transform="translate(62.138125 218.156484) scale(0.09 -0.09)">
      <defs>
       <path id="DejaVuSans-35" d="M 2841 2188 
Q 3044 2119 3236 1894 
Q 3428 1669 3622 1275 
L 4263 0 
L 3584 0 
L 2988 1197 
Q 2756 1666 2539 1819 
Q 2322 1972 1947 1972 
L 1259 1972 
L 1259 0 
L 628 0 
L 628 4666 
L 2053 4666 
Q 2853 4666 3247 4331 
Q 3641 3997 3641 3322 
Q 3641 2881 3436 2590 
Q 3231 2300 2841 2188 
z
M 1259 4147 
L 1259 2491 
L 2053 2491 
Q 2509 2491 2742 2702 
Q 2975 2913 2975 3322 
Q 2975 3731 2742 3939 
Q 2509 4147 2053 4147 
L 1259 4147 
z
" transform="scale(0.015625)"/>
       <path id="DejaVuSans-48" d="M 3597 1894 
L 3597 1613 
L 953 1613 
Q 991 1019 1311 708 
Q 1631 397 2203 397 
Q 2534 397 2845 478 
Q 3156 559 3463 722 
L 3463 178 
Q 3153 47 2828 -22 
Q 2503 -91 2169 -91 
Q 1331 -91 842 396 
Q 353 884 353 1716 
Q 353 2575 817 3079 
Q 1281 3584 2069 3584 
Q 2775 3584 3186 3129 
Q 3597 2675 3597 1894 
z
M 3022 2063 
Q 3016 2534 2758 2815 
Q 2500 3097 2075 3097 
Q 1594 3097 1305 2825 
Q 1016 2553 972 2059 
L 3022 2063 
z
" transform="scale(0.015625)"/>
       <path id="DejaVuSans-53" d="M 1159 525 
L 1159 -1331 
L 581 -1331 
L 581 3500 
L 1159 3500 
L 1159 2969 
Q 1341 3281 1617 3432 
Q 1894 3584 2278 3584 
Q 2916 3584 3314 3078 
Q 3713 2572 3713 1747 
Q 3713 922 3314 415 
Q 2916 -91 2278 -91 
Q 1894 -91 1617 61 
Q 1341 213 1159 525 
z
M 3116 1747 
Q 3116 2381 2855 2742 
Q 2594 3103 2138 3103 
Q 1681 3103 1420 2742 
Q 1159 2381 1159 1747 
Q 1159 1113 1420 752 
Q 1681 391 2138 391 
Q 2594 391 2855 752 
Q 3116 1113 3116 1747 
z
" transform="scale(0.015625)"/>
       <path id="DejaVuSans-57" d="M 1172 4494 
L 1172 3500 
L 2356 3500 
L 2356 3053 
L 1172 3053 
L 1172 1153 
Q 1172 725 1289 603 
Q 1406 481 1766 481 
L 2356 481 
L 2356 0 
L 1766 0 
Q 1100 0 847 248 
Q 594 497 594 1153 
L 594 3053 
L 172 3053 
L 172 3500 
L 594 3500 
L 594 4494 
L 1172 4494 
z
" transform="scale(0.015625)"/>
       <path id="DejaVuSans-4c" d="M 603 3500 
L 1178 3500 
L 1178 0 
L 603 0 
L 603 3500 
z
M 603 4863 
L 1178 4863 
L 1178 4134 
L 603 4134 
L 603 4863 
z
" transform="scale(0.015625)"/>
       <path id="DejaVuSans-46" d="M 3122 3366 
L 3122 2828 
Q 2878 2963 2633 3030 
Q 2388 3097 2138 3097 
Q 1578 3097 1268 2742 
Q 959 2388 959 1747 
Q 959 1106 1268 751 
Q 1578 397 2138 397 
Q 2388 397 2633 464 
Q 2878 531 3122 666 
L 3122 134 
Q 2881 22 2623 -34 
Q 2366 -91 2075 -91 
Q 1284 -91 818 406 
Q 353 903 353 1747 
Q 353 2603 823 3093 
Q 1294 3584 2113 3584 
Q 2378 3584 2631 3529 
Q 2884 3475 3122 3366 
z
" transform="scale(0.015625)"/>
       <path id="DejaVuSans-52" d="M 1959 3097 
Q 1497 3097 1228 2736 
Q 959 2375 959 1747 
Q 959 1119 1226 758 
Q 1494 397 1959 397 
Q 2419 397 2687 759 
Q 2956 1122 2956 1747 
Q 2956 2369 2687 2733 
Q 2419 3097 1959 3097 
z
M 1959 3584 
Q 2709 3584 3137 3096 
Q 3566 2609 3566 1747 
Q 3566 888 3137 398 
Q 2709 -91 1959 -91 
Q 1206 -91 779 398 
Q 353 888 353 1747 
Q 353 2609 779 3096 
Q 1206 3584 1959 3584 
z
" transform="scale(0.015625)"/>
       <path id="DejaVuSans-51" d="M 3513 2113 
L 3513 0 
L 2938 0 
L 2938 2094 
Q 2938 2591 2744 2837 
Q 2550 3084 2163 3084 
Q 1697 3084 1428 2787 
Q 1159 2491 1159 1978 
L 1159 0 
L 581 0 
L 581 3500 
L 1159 3500 
L 1159 2956 
Q 1366 3272 1645 3428 
Q 1925 3584 2291 3584 
Q 2894 3584 3203 3211 
Q 3513 2838 3513 2113 
z
" transform="scale(0.015625)"/>
       <path id="DejaVuSans-56" d="M 2834 3397 
L 2834 2853 
Q 2591 2978 2328 3040 
Q 2066 3103 1784 3103 
Q 1356 3103 1142 2972 
Q 928 2841 928 2578 
Q 928 2378 1081 2264 
Q 1234 2150 1697 2047 
L 1894 2003 
Q 2506 1872 2764 1633 
Q 3022 1394 3022 966 
Q 3022 478 2636 193 
Q 2250 -91 1575 -91 
Q 1294 -91 989 -36 
Q 684 19 347 128 
L 347 722 
Q 666 556 975 473 
Q 1284 391 1588 391 
Q 1994 391 2212 530 
Q 2431 669 2431 922 
Q 2431 1156 2273 1281 
Q 2116 1406 1581 1522 
L 1381 1569 
Q 847 1681 609 1914 
Q 372 2147 372 2553 
Q 372 3047 722 3315 
Q 1072 3584 1716 3584 
Q 2034 3584 2315 3537 
Q 2597 3491 2834 3397 
z
" transform="scale(0.015625)"/>
       <path id="DejaVuSans-3" transform="scale(0.015625)"/>
       <path id="DejaVuSans-5b" d="M 3513 3500 
L 2247 1797 
L 3578 0 
L 2900 0 
L 1881 1375 
L 863 0 
L 184 0 
L 1544 1831 
L 300 3500 
L 978 3500 
L 1906 2253 
L 2834 3500 
L 3513 3500 
z
" transform="scale(0.015625)"/>
       <path id="DejaVuSans-44" d="M 2194 1759 
Q 1497 1759 1228 1600 
Q 959 1441 959 1056 
Q 959 750 1161 570 
Q 1363 391 1709 391 
Q 2188 391 2477 730 
Q 2766 1069 2766 1631 
L 2766 1759 
L 2194 1759 
z
M 3341 1997 
L 3341 0 
L 2766 0 
L 2766 531 
Q 2569 213 2275 61 
Q 1981 -91 1556 -91 
Q 1019 -91 701 211 
Q 384 513 384 1019 
Q 384 1609 779 1909 
Q 1175 2209 1959 2209 
L 2766 2209 
L 2766 2266 
Q 2766 2663 2505 2880 
Q 2244 3097 1772 3097 
Q 1472 3097 1187 3025 
Q 903 2953 641 2809 
L 641 3341 
Q 956 3463 1253 3523 
Q 1550 3584 1831 3584 
Q 2591 3584 2966 3190 
Q 3341 2797 3341 1997 
z
" transform="scale(0.015625)"/>
      </defs>
      <use xlink:href="#DejaVuSans-35"/>
      <use xlink:href="#DejaVuSans-48" transform="translate(65 0)"/>
      <use xlink:href="#DejaVuSans-53" transform="translate(126.53125 0)"/>
      <use xlink:href="#DejaVuSans-48" transform="translate(190.015625 0)"/>
      <use xlink:href="#DejaVuSans-57" transform="translate(251.546875 0)"/>
      <use xlink:href="#DejaVuSans-4c" transform="translate(290.75 0)"/>
      <use xlink:href="#DejaVuSans-46" transform="translate(318.53125 0)"/>
      <use xlink:href="#DejaVuSans-4c" transform="translate(373.515625 0)"/>
      <use xlink:href="#DejaVuSans-52" transform="translate(401.296875 0)"/>
      <use xlink:href="#DejaVuSans-51" transform="translate(462.484375 0)"/>
      <use xlink:href="#DejaVuSans-48" transform="translate(525.859375 0)"/>
      <use xlink:href="#DejaVuSans-56" transform="translate(587.390625 0)"/>
      <use xlink:href="#DejaVuSans-3" transform="translate(639.484375 0)"/>
      <use xlink:href="#DejaVuSans-48" transform="translate(671.265625 0)"/>
      <use xlink:href="#DejaVuSans-5b" transform="translate(731.046875 0)"/>
      <use xlink:href="#DejaVuSans-4c" transform="translate(790.234375 0)"/>
      <use xlink:href="#DejaVuSans-57" transform="translate(818.015625 0)"/>
      <use xlink:href="#DejaVuSans-52" transform="translate(857.21875 0)"/>
      <use xlink:href="#DejaVuSans-56" transform="translate(918.40625 0)"/>
      <use xlink:href="#DejaVuSans-44" transform="translate(970.5 0)"/>
      <use xlink:href="#DejaVuSans-56" transform="translate(1031.78125 0)"/>
     </g>
    </g>
   </g>
   <g id="matplotlib.axis_2">
    <g id="ytick_1">
     <g id="line2d_5">
      <path d="M 41.24 191.317891 
L 180.585 191.317891 
" clip-path="url(#pb1ead396cf)" style="fill: none; stroke: #e1e0d9; stroke-width: 0.6; stroke-linecap: square"/>
     </g>
     <g id="line2d_6">
      <defs>
       <path id="m4a474083e1" d="M 0 0 
L -3.5 0 
" style="stroke: #52514e; stroke-width: 0.8"/>
      </defs>
      <g>
       <use xlink:href="#m4a474083e1" x="41.24" y="191.317891" style="fill: #52514e; stroke: #52514e; stroke-width: 0.8"/>
      </g>
     </g>
     <g id="text_6">
      <!-- 0 -->
      <g style="fill: #52514e" transform="translate(28.51375 194.736836) scale(0.09 -0.09)">
       <use xlink:href="#DejaVuSans-13"/>
      </g>
     </g>
    </g>
    <g id="ytick_2">
     <g id="line2d_7">
      <path d="M 41.24 166.399444 
L 180.585 166.399444 
" clip-path="url(#pb1ead396cf)" style="fill: none; stroke: #e1e0d9; stroke-width: 0.6; stroke-linecap: square"/>
     </g>
     <g id="line2d_8">
      <g>
       <use xlink:href="#m4a474083e1" x="41.24" y="166.399444" style="fill: #52514e; stroke: #52514e; stroke-width: 0.8"/>
      </g>
     </g>
     <g id="text_7">
      <!-- 5 -->
      <g style="fill: #52514e" transform="translate(28.51375 169.818389) scale(0.09 -0.09)">
       <defs>
        <path id="DejaVuSans-18" d="M 691 4666 
L 3169 4666 
L 3169 4134 
L 1269 4134 
L 1269 2991 
Q 1406 3038 1543 3061 
Q 1681 3084 1819 3084 
Q 2600 3084 3056 2656 
Q 3513 2228 3513 1497 
Q 3513 744 3044 326 
Q 2575 -91 1722 -91 
Q 1428 -91 1123 -41 
Q 819 9 494 109 
L 494 744 
Q 775 591 1075 516 
Q 1375 441 1709 441 
Q 2250 441 2565 725 
Q 2881 1009 2881 1497 
Q 2881 1984 2565 2268 
Q 2250 2553 1709 2553 
Q 1456 2553 1204 2497 
Q 953 2441 691 2322 
L 691 4666 
z
" transform="scale(0.015625)"/>
       </defs>
       <use xlink:href="#DejaVuSans-18"/>
      </g>
     </g>
    </g>
    <g id="ytick_3">
     <g id="line2d_9">
      <path d="M 41.24 141.480996 
L 180.585 141.480996 
" clip-path="url(#pb1ead396cf)" style="fill: none; stroke: #e1e0d9; stroke-width: 0.6; stroke-linecap: square"/>
     </g>
     <g id="line2d_10">
      <g>
       <use xlink:href="#m4a474083e1" x="41.24" y="141.480996" style="fill: #52514e; stroke: #52514e; stroke-width: 0.8"/>
      </g>
     </g>
     <g id="text_8">
      <!-- 10 -->
      <g style="fill: #52514e" transform="translate(22.7875 144.899942) scale(0.09 -0.09)">
       <use xlink:href="#DejaVuSans-14"/>
       <use xlink:href="#DejaVuSans-13" transform="translate(63.625 0)"/>
      </g>
     </g>
    </g>
    <g id="ytick_4">
     <g id="line2d_11">
      <path d="M 41.24 116.562549 
L 180.585 116.562549 
" clip-path="url(#pb1ead396cf)" style="fill: none; stroke: #e1e0d9; stroke-width: 0.6; stroke-linecap: square"/>
     </g>
     <g id="line2d_12">
      <g>
       <use xlink:href="#m4a474083e1" x="41.24" y="116.562549" style="fill: #52514e; stroke: #52514e; stroke-width: 0.8"/>
      </g>
     </g>
     <g id="text_9">
      <!-- 15 -->
      <g style="fill: #52514e" transform="translate(22.7875 119.981495) scale(0.09 -0.09)">
       <use xlink:href="#DejaVuSans-14"/>
       <use xlink:href="#DejaVuSans-18" transform="translate(63.625 0)"/>
      </g>
     </g>
    </g>
    <g id="ytick_5">
     <g id="line2d_13">
      <path d="M 41.24 91.644102 
L 180.585 91.644102 
" clip-path="url(#pb1ead396cf)" style="fill: none; stroke: #e1e0d9; stroke-width: 0.6; stroke-linecap: square"/>
     </g>
     <g id="line2d_14">
      <g>
       <use xlink:href="#m4a474083e1" x="41.24" y="91.644102" style="fill: #52514e; stroke: #52514e; stroke-width: 0.8"/>
      </g>
     </g>
     <g id="text_10">
      <!-- 20 -->
      <g style="fill: #52514e" transform="translate(22.7875 95.063048) scale(0.09 -0.09)">
       <use xlink:href="#DejaVuSans-15"/>
       <use xlink:href="#DejaVuSans-13" transform="translate(63.625 0)"/>
      </g>
     </g>
    </g>
    <g id="ytick_6">
     <g id="line2d_15">
      <path d="M 41.24 66.725655 
L 180.585 66.725655 
" clip-path="url(#pb1ead396cf)" style="fill: none; stroke: #e1e0d9; stroke-width: 0.6; stroke-linecap: square"/>
     </g>
     <g id="line2d_16">
      <g>
       <use xlink:href="#m4a474083e1" x="41.24" y="66.725655" style="fill: #52514e; stroke: #52514e; stroke-width: 0.8"/>
      </g>
     </g>
     <g id="text_11">
      <!-- 25 -->
      <g style="fill: #52514e" transform="translate(22.7875 70.144601) scale(0.09 -0.09)">
       <use xlink:href="#DejaVuSans-15"/>
       <use xlink:href="#DejaVuSans-18" transform="translate(63.625 0)"/>
      </g>
     </g>
    </g>
    <g id="text_12">
     <!-- Tareas -->
     <g style="fill: #52514e" transform="translate(16.625391 132.440781) rotate(-90) scale(0.09 -0.09)">
      <defs>
       <path id="DejaVuSans-37" d="M -19 4666 
L 3928 4666 
L 3928 4134 
L 2272 4134 
L 2272 0 
L 1638 0 
L 1638 4134 
L -19 4134 
L -19 4666 
z
" transform="scale(0.015625)"/>
       <path id="DejaVuSans-55" d="M 2631 2963 
Q 2534 3019 2420 3045 
Q 2306 3072 2169 3072 
Q 1681 3072 1420 2755 
Q 1159 2438 1159 1844 
L 1159 0 
L 581 0 
L 581 3500 
L 1159 3500 
L 1159 2956 
Q 1341 3275 1631 3429 
Q 1922 3584 2338 3584 
Q 2397 3584 2469 3576 
Q 2541 3569 2628 3553 
L 2631 2963 
z
" transform="scale(0.015625)"/>
      </defs>
      <use xlink:href="#DejaVuSans-37"/>
      <use xlink:href="#DejaVuSans-44" transform="translate(44.53125 0)"/>
      <use xlink:href="#DejaVuSans-55" transform="translate(105.8125 0)"/>
      <use xlink:href="#DejaVuSans-48" transform="translate(144.71875 0)"/>
      <use xlink:href="#DejaVuSans-44" transform="translate(206.25 0)"/>
      <use xlink:href="#DejaVuSans-56" transform="translate(267.53125 0)"/>
     </g>
    </g>
   </g>
   <g id="patch_7">
    <path d="M 41.24 191.317891 
L 41.24 44.797422 
" style="fill: none; stroke: #c3c2b7; stroke-width: 0.8; stroke-linejoin: miter; stroke-linecap: square"/>
   </g>
   <g id="patch_8">
    <path d="M 41.24 191.317891 
L 180.585 191.317891 
" style="fill: none; stroke: #c3c2b7; stroke-width: 0.8; stroke-linejoin: miter; stroke-linecap: square"/>
   </g>
   <g id="text_13">
    <!-- B0 -->
    <g style="fill: #0b0b0b" transform="translate(41.24 38.797422) scale(0.11 -0.11)">
     <defs>
      <path id="DejaVuSans-25" d="M 1259 2228 
L 1259 519 
L 2272 519 
Q 2781 519 3026 730 
Q 3272 941 3272 1375 
Q 3272 1813 3026 2020 
Q 2781 2228 2272 2228 
L 1259 2228 
z
M 1259 4147 
L 1259 2741 
L 2194 2741 
Q 2656 2741 2882 2914 
Q 3109 3088 3109 3444 
Q 3109 3797 2882 3972 
Q 2656 4147 2194 4147 
L 1259 4147 
z
M 628 4666 
L 2241 4666 
Q 2963 4666 3353 4366 
Q 3744 4066 3744 3513 
Q 3744 3084 3544 2831 
Q 3344 2578 2956 2516 
Q 3422 2416 3680 2098 
Q 3938 1781 3938 1306 
Q 3938 681 3513 340 
Q 3088 0 2303 0 
L 628 0 
L 628 4666 
z
" transform="scale(0.015625)"/>
     </defs>
     <use xlink:href="#DejaVuSans-25"/>
     <use xlink:href="#DejaVuSans-13" transform="translate(68.609375 0)"/>
    </g>
   </g>
  </g>
  <g id="axes_2">
   <g id="patch_9">
    <path d="M 193.805 191.317891 
L 333.15 191.317891 
L 333.15 44.797422 
L 193.805 44.797422 
z
" style="fill: #fcfcfb"/>
   </g>
   <g id="patch_10">
    <path d="M 200.138864 191.317891 
L 226.807763 191.317891 
L 226.807763 166.399444 
L 200.138864 166.399444 
z
" clip-path="url(#pb74e4a8927)" style="fill: #eb6834; stroke: #fcfcfb; stroke-width: 2; stroke-linejoin: miter"/>
   </g>
   <g id="patch_11">
    <path d="M 233.474988 191.317891 
L 260.143888 191.317891 
L 260.143888 186.334201 
L 233.474988 186.334201 
z
" clip-path="url(#pb74e4a8927)" style="fill: #eb6834; stroke: #fcfcfb; stroke-width: 2; stroke-linejoin: miter"/>
   </g>
   <g id="patch_12">
    <path d="M 266.811112 191.317891 
L 293.480012 191.317891 
L 293.480012 146.464686 
L 266.811112 146.464686 
z
" clip-path="url(#pb74e4a8927)" style="fill: #eb6834; stroke: #fcfcfb; stroke-width: 2; stroke-linejoin: miter"/>
   </g>
   <g id="patch_13">
    <path d="M 300.147237 191.317891 
L 326.816136 191.317891 
L 326.816136 66.725655 
L 300.147237 66.725655 
z
" clip-path="url(#pb74e4a8927)" style="fill: #eb6834; stroke: #fcfcfb; stroke-width: 2; stroke-linejoin: miter"/>
   </g>
   <g id="matplotlib.axis_3">
    <g id="xtick_5">
     <g id="line2d_17">
      <g>
       <use xlink:href="#m0841af3d36" x="213.473313" y="191.317891" style="fill: #52514e; stroke: #52514e; stroke-width: 0.8"/>
      </g>
     </g>
     <g id="text_14">
      <!-- 0 -->
      <g style="fill: #52514e" transform="translate(210.610188 205.155781) scale(0.09 -0.09)">
       <use xlink:href="#DejaVuSans-13"/>
      </g>
     </g>
    </g>
    <g id="xtick_6">
     <g id="line2d_18">
      <g>
       <use xlink:href="#m0841af3d36" x="246.809438" y="191.317891" style="fill: #52514e; stroke: #52514e; stroke-width: 0.8"/>
      </g>
     </g>
     <g id="text_15">
      <!-- 1 -->
      <g style="fill: #52514e" transform="translate(243.946313 205.155781) scale(0.09 -0.09)">
       <use xlink:href="#DejaVuSans-14"/>
      </g>
     </g>
    </g>
    <g id="xtick_7">
     <g id="line2d_19">
      <g>
       <use xlink:href="#m0841af3d36" x="280.145562" y="191.317891" style="fill: #52514e; stroke: #52514e; stroke-width: 0.8"/>
      </g>
     </g>
     <g id="text_16">
      <!-- 2 -->
      <g style="fill: #52514e" transform="translate(277.282437 205.155781) scale(0.09 -0.09)">
       <use xlink:href="#DejaVuSans-15"/>
      </g>
     </g>
    </g>
    <g id="xtick_8">
     <g id="line2d_20">
      <g>
       <use xlink:href="#m0841af3d36" x="313.481687" y="191.317891" style="fill: #52514e; stroke: #52514e; stroke-width: 0.8"/>
      </g>
     </g>
     <g id="text_17">
      <!-- 3 -->
      <g style="fill: #52514e" transform="translate(310.618562 205.155781) scale(0.09 -0.09)">
       <use xlink:href="#DejaVuSans-16"/>
      </g>
     </g>
    </g>
    <g id="text_18">
     <!-- Repeticiones exitosas -->
     <g style="fill: #52514e" transform="translate(214.703125 218.156484) scale(0.09 -0.09)">
      <use xlink:href="#DejaVuSans-35"/>
      <use xlink:href="#DejaVuSans-48" transform="translate(65 0)"/>
      <use xlink:href="#DejaVuSans-53" transform="translate(126.53125 0)"/>
      <use xlink:href="#DejaVuSans-48" transform="translate(190.015625 0)"/>
      <use xlink:href="#DejaVuSans-57" transform="translate(251.546875 0)"/>
      <use xlink:href="#DejaVuSans-4c" transform="translate(290.75 0)"/>
      <use xlink:href="#DejaVuSans-46" transform="translate(318.53125 0)"/>
      <use xlink:href="#DejaVuSans-4c" transform="translate(373.515625 0)"/>
      <use xlink:href="#DejaVuSans-52" transform="translate(401.296875 0)"/>
      <use xlink:href="#DejaVuSans-51" transform="translate(462.484375 0)"/>
      <use xlink:href="#DejaVuSans-48" transform="translate(525.859375 0)"/>
      <use xlink:href="#DejaVuSans-56" transform="translate(587.390625 0)"/>
      <use xlink:href="#DejaVuSans-3" transform="translate(639.484375 0)"/>
      <use xlink:href="#DejaVuSans-48" transform="translate(671.265625 0)"/>
      <use xlink:href="#DejaVuSans-5b" transform="translate(731.046875 0)"/>
      <use xlink:href="#DejaVuSans-4c" transform="translate(790.234375 0)"/>
      <use xlink:href="#DejaVuSans-57" transform="translate(818.015625 0)"/>
      <use xlink:href="#DejaVuSans-52" transform="translate(857.21875 0)"/>
      <use xlink:href="#DejaVuSans-56" transform="translate(918.40625 0)"/>
      <use xlink:href="#DejaVuSans-44" transform="translate(970.5 0)"/>
      <use xlink:href="#DejaVuSans-56" transform="translate(1031.78125 0)"/>
     </g>
    </g>
   </g>
   <g id="matplotlib.axis_4">
    <g id="ytick_7">
     <g id="line2d_21">
      <path d="M 193.805 191.317891 
L 333.15 191.317891 
" clip-path="url(#pb74e4a8927)" style="fill: none; stroke: #e1e0d9; stroke-width: 0.6; stroke-linecap: square"/>
     </g>
     <g id="line2d_22">
      <g>
       <use xlink:href="#m4a474083e1" x="193.805" y="191.317891" style="fill: #52514e; stroke: #52514e; stroke-width: 0.8"/>
      </g>
     </g>
    </g>
    <g id="ytick_8">
     <g id="line2d_23">
      <path d="M 193.805 166.399444 
L 333.15 166.399444 
" clip-path="url(#pb74e4a8927)" style="fill: none; stroke: #e1e0d9; stroke-width: 0.6; stroke-linecap: square"/>
     </g>
     <g id="line2d_24">
      <g>
       <use xlink:href="#m4a474083e1" x="193.805" y="166.399444" style="fill: #52514e; stroke: #52514e; stroke-width: 0.8"/>
      </g>
     </g>
    </g>
    <g id="ytick_9">
     <g id="line2d_25">
      <path d="M 193.805 141.480996 
L 333.15 141.480996 
" clip-path="url(#pb74e4a8927)" style="fill: none; stroke: #e1e0d9; stroke-width: 0.6; stroke-linecap: square"/>
     </g>
     <g id="line2d_26">
      <g>
       <use xlink:href="#m4a474083e1" x="193.805" y="141.480996" style="fill: #52514e; stroke: #52514e; stroke-width: 0.8"/>
      </g>
     </g>
    </g>
    <g id="ytick_10">
     <g id="line2d_27">
      <path d="M 193.805 116.562549 
L 333.15 116.562549 
" clip-path="url(#pb74e4a8927)" style="fill: none; stroke: #e1e0d9; stroke-width: 0.6; stroke-linecap: square"/>
     </g>
     <g id="line2d_28">
      <g>
       <use xlink:href="#m4a474083e1" x="193.805" y="116.562549" style="fill: #52514e; stroke: #52514e; stroke-width: 0.8"/>
      </g>
     </g>
    </g>
    <g id="ytick_11">
     <g id="line2d_29">
      <path d="M 193.805 91.644102 
L 333.15 91.644102 
" clip-path="url(#pb74e4a8927)" style="fill: none; stroke: #e1e0d9; stroke-width: 0.6; stroke-linecap: square"/>
     </g>
     <g id="line2d_30">
      <g>
       <use xlink:href="#m4a474083e1" x="193.805" y="91.644102" style="fill: #52514e; stroke: #52514e; stroke-width: 0.8"/>
      </g>
     </g>
    </g>
    <g id="ytick_12">
     <g id="line2d_31">
      <path d="M 193.805 66.725655 
L 333.15 66.725655 
" clip-path="url(#pb74e4a8927)" style="fill: none; stroke: #e1e0d9; stroke-width: 0.6; stroke-linecap: square"/>
     </g>
     <g id="line2d_32">
      <g>
       <use xlink:href="#m4a474083e1" x="193.805" y="66.725655" style="fill: #52514e; stroke: #52514e; stroke-width: 0.8"/>
      </g>
     </g>
    </g>
   </g>
   <g id="patch_14">
    <path d="M 193.805 191.317891 
L 193.805 44.797422 
" style="fill: none; stroke: #c3c2b7; stroke-width: 0.8; stroke-linejoin: miter; stroke-linecap: square"/>
   </g>
   <g id="patch_15">
    <path d="M 193.805 191.317891 
L 333.15 191.317891 
" style="fill: none; stroke: #c3c2b7; stroke-width: 0.8; stroke-linejoin: miter; stroke-linecap: square"/>
   </g>
   <g id="text_19">
    <!-- B1 -->
    <g style="fill: #0b0b0b" transform="translate(193.805 38.797422) scale(0.11 -0.11)">
     <use xlink:href="#DejaVuSans-25"/>
     <use xlink:href="#DejaVuSans-14" transform="translate(68.609375 0)"/>
    </g>
   </g>
  </g>
  <g id="axes_3">
   <g id="patch_16">
    <path d="M 346.37 191.317891 
L 485.715 191.317891 
L 485.715 44.797422 
L 346.37 44.797422 
z
" style="fill: #fcfcfb"/>
   </g>
   <g id="patch_17">
    <path d="M 352.703864 191.317891 
L 379.372763 191.317891 
L 379.372763 166.399444 
L 352.703864 166.399444 
z
" clip-path="url(#p764472d378)" style="fill: #1baf7a; stroke: #fcfcfb; stroke-width: 2; stroke-linejoin: miter"/>
   </g>
   <g id="patch_18">
    <path d="M 386.039988 191.317891 
L 412.708888 191.317891 
L 412.708888 171.383133 
L 386.039988 171.383133 
z
" clip-path="url(#p764472d378)" style="fill: #1baf7a; stroke: #fcfcfb; stroke-width: 2; stroke-linejoin: miter"/>
   </g>
   <g id="patch_19">
    <path d="M 419.376112 191.317891 
L 446.045012 191.317891 
L 446.045012 171.383133 
L 419.376112 171.383133 
z
" clip-path="url(#p764472d378)" style="fill: #1baf7a; stroke: #fcfcfb; stroke-width: 2; stroke-linejoin: miter"/>
   </g>
   <g id="patch_20">
    <path d="M 452.712237 191.317891 
L 479.381136 191.317891 
L 479.381136 56.758276 
L 452.712237 56.758276 
z
" clip-path="url(#p764472d378)" style="fill: #1baf7a; stroke: #fcfcfb; stroke-width: 2; stroke-linejoin: miter"/>
   </g>
   <g id="matplotlib.axis_5">
    <g id="xtick_9">
     <g id="line2d_33">
      <g>
       <use xlink:href="#m0841af3d36" x="366.038313" y="191.317891" style="fill: #52514e; stroke: #52514e; stroke-width: 0.8"/>
      </g>
     </g>
     <g id="text_20">
      <!-- 0 -->
      <g style="fill: #52514e" transform="translate(363.175188 205.155781) scale(0.09 -0.09)">
       <use xlink:href="#DejaVuSans-13"/>
      </g>
     </g>
    </g>
    <g id="xtick_10">
     <g id="line2d_34">
      <g>
       <use xlink:href="#m0841af3d36" x="399.374438" y="191.317891" style="fill: #52514e; stroke: #52514e; stroke-width: 0.8"/>
      </g>
     </g>
     <g id="text_21">
      <!-- 1 -->
      <g style="fill: #52514e" transform="translate(396.511313 205.155781) scale(0.09 -0.09)">
       <use xlink:href="#DejaVuSans-14"/>
      </g>
     </g>
    </g>
    <g id="xtick_11">
     <g id="line2d_35">
      <g>
       <use xlink:href="#m0841af3d36" x="432.710562" y="191.317891" style="fill: #52514e; stroke: #52514e; stroke-width: 0.8"/>
      </g>
     </g>
     <g id="text_22">
      <!-- 2 -->
      <g style="fill: #52514e" transform="translate(429.847437 205.155781) scale(0.09 -0.09)">
       <use xlink:href="#DejaVuSans-15"/>
      </g>
     </g>
    </g>
    <g id="xtick_12">
     <g id="line2d_36">
      <g>
       <use xlink:href="#m0841af3d36" x="466.046687" y="191.317891" style="fill: #52514e; stroke: #52514e; stroke-width: 0.8"/>
      </g>
     </g>
     <g id="text_23">
      <!-- 3 -->
      <g style="fill: #52514e" transform="translate(463.183562 205.155781) scale(0.09 -0.09)">
       <use xlink:href="#DejaVuSans-16"/>
      </g>
     </g>
    </g>
    <g id="text_24">
     <!-- Repeticiones exitosas -->
     <g style="fill: #52514e" transform="translate(367.268125 218.156484) scale(0.09 -0.09)">
      <use xlink:href="#DejaVuSans-35"/>
      <use xlink:href="#DejaVuSans-48" transform="translate(65 0)"/>
      <use xlink:href="#DejaVuSans-53" transform="translate(126.53125 0)"/>
      <use xlink:href="#DejaVuSans-48" transform="translate(190.015625 0)"/>
      <use xlink:href="#DejaVuSans-57" transform="translate(251.546875 0)"/>
      <use xlink:href="#DejaVuSans-4c" transform="translate(290.75 0)"/>
      <use xlink:href="#DejaVuSans-46" transform="translate(318.53125 0)"/>
      <use xlink:href="#DejaVuSans-4c" transform="translate(373.515625 0)"/>
      <use xlink:href="#DejaVuSans-52" transform="translate(401.296875 0)"/>
      <use xlink:href="#DejaVuSans-51" transform="translate(462.484375 0)"/>
      <use xlink:href="#DejaVuSans-48" transform="translate(525.859375 0)"/>
      <use xlink:href="#DejaVuSans-56" transform="translate(587.390625 0)"/>
      <use xlink:href="#DejaVuSans-3" transform="translate(639.484375 0)"/>
      <use xlink:href="#DejaVuSans-48" transform="translate(671.265625 0)"/>
      <use xlink:href="#DejaVuSans-5b" transform="translate(731.046875 0)"/>
      <use xlink:href="#DejaVuSans-4c" transform="translate(790.234375 0)"/>
      <use xlink:href="#DejaVuSans-57" transform="translate(818.015625 0)"/>
      <use xlink:href="#DejaVuSans-52" transform="translate(857.21875 0)"/>
      <use xlink:href="#DejaVuSans-56" transform="translate(918.40625 0)"/>
      <use xlink:href="#DejaVuSans-44" transform="translate(970.5 0)"/>
      <use xlink:href="#DejaVuSans-56" transform="translate(1031.78125 0)"/>
     </g>
    </g>
   </g>
   <g id="matplotlib.axis_6">
    <g id="ytick_13">
     <g id="line2d_37">
      <path d="M 346.37 191.317891 
L 485.715 191.317891 
" clip-path="url(#p764472d378)" style="fill: none; stroke: #e1e0d9; stroke-width: 0.6; stroke-linecap: square"/>
     </g>
     <g id="line2d_38">
      <g>
       <use xlink:href="#m4a474083e1" x="346.37" y="191.317891" style="fill: #52514e; stroke: #52514e; stroke-width: 0.8"/>
      </g>
     </g>
    </g>
    <g id="ytick_14">
     <g id="line2d_39">
      <path d="M 346.37 166.399444 
L 485.715 166.399444 
" clip-path="url(#p764472d378)" style="fill: none; stroke: #e1e0d9; stroke-width: 0.6; stroke-linecap: square"/>
     </g>
     <g id="line2d_40">
      <g>
       <use xlink:href="#m4a474083e1" x="346.37" y="166.399444" style="fill: #52514e; stroke: #52514e; stroke-width: 0.8"/>
      </g>
     </g>
    </g>
    <g id="ytick_15">
     <g id="line2d_41">
      <path d="M 346.37 141.480996 
L 485.715 141.480996 
" clip-path="url(#p764472d378)" style="fill: none; stroke: #e1e0d9; stroke-width: 0.6; stroke-linecap: square"/>
     </g>
     <g id="line2d_42">
      <g>
       <use xlink:href="#m4a474083e1" x="346.37" y="141.480996" style="fill: #52514e; stroke: #52514e; stroke-width: 0.8"/>
      </g>
     </g>
    </g>
    <g id="ytick_16">
     <g id="line2d_43">
      <path d="M 346.37 116.562549 
L 485.715 116.562549 
" clip-path="url(#p764472d378)" style="fill: none; stroke: #e1e0d9; stroke-width: 0.6; stroke-linecap: square"/>
     </g>
     <g id="line2d_44">
      <g>
       <use xlink:href="#m4a474083e1" x="346.37" y="116.562549" style="fill: #52514e; stroke: #52514e; stroke-width: 0.8"/>
      </g>
     </g>
    </g>
    <g id="ytick_17">
     <g id="line2d_45">
      <path d="M 346.37 91.644102 
L 485.715 91.644102 
" clip-path="url(#p764472d378)" style="fill: none; stroke: #e1e0d9; stroke-width: 0.6; stroke-linecap: square"/>
     </g>
     <g id="line2d_46">
      <g>
       <use xlink:href="#m4a474083e1" x="346.37" y="91.644102" style="fill: #52514e; stroke: #52514e; stroke-width: 0.8"/>
      </g>
     </g>
    </g>
    <g id="ytick_18">
     <g id="line2d_47">
      <path d="M 346.37 66.725655 
L 485.715 66.725655 
" clip-path="url(#p764472d378)" style="fill: none; stroke: #e1e0d9; stroke-width: 0.6; stroke-linecap: square"/>
     </g>
     <g id="line2d_48">
      <g>
       <use xlink:href="#m4a474083e1" x="346.37" y="66.725655" style="fill: #52514e; stroke: #52514e; stroke-width: 0.8"/>
      </g>
     </g>
    </g>
   </g>
   <g id="patch_21">
    <path d="M 346.37 191.317891 
L 346.37 44.797422 
" style="fill: none; stroke: #c3c2b7; stroke-width: 0.8; stroke-linejoin: miter; stroke-linecap: square"/>
   </g>
   <g id="patch_22">
    <path d="M 346.37 191.317891 
L 485.715 191.317891 
" style="fill: none; stroke: #c3c2b7; stroke-width: 0.8; stroke-linejoin: miter; stroke-linecap: square"/>
   </g>
   <g id="text_25">
    <!-- B2 -->
    <g style="fill: #0b0b0b" transform="translate(346.37 38.797422) scale(0.11 -0.11)">
     <use xlink:href="#DejaVuSans-25"/>
     <use xlink:href="#DejaVuSans-15" transform="translate(68.609375 0)"/>
    </g>
   </g>
  </g>
  <g id="axes_4">
   <g id="patch_23">
    <path d="M 498.935 191.317891 
L 638.28 191.317891 
L 638.28 44.797422 
L 498.935 44.797422 
z
" style="fill: #fcfcfb"/>
   </g>
   <g id="patch_24">
    <path d="M 505.268864 191.317891 
L 531.937763 191.317891 
L 531.937763 161.415754 
L 505.268864 161.415754 
z
" clip-path="url(#paa1cd2cd39)" style="fill: #eda100; stroke: #fcfcfb; stroke-width: 2; stroke-linejoin: miter"/>
   </g>
   <g id="patch_25">
    <path d="M 538.604988 191.317891 
L 565.273888 191.317891 
L 565.273888 176.366822 
L 538.604988 176.366822 
z
" clip-path="url(#paa1cd2cd39)" style="fill: #eda100; stroke: #fcfcfb; stroke-width: 2; stroke-linejoin: miter"/>
   </g>
   <g id="patch_26">
    <path d="M 571.941112 191.317891 
L 598.610012 191.317891 
L 598.610012 166.399444 
L 571.941112 166.399444 
z
" clip-path="url(#paa1cd2cd39)" style="fill: #eda100; stroke: #fcfcfb; stroke-width: 2; stroke-linejoin: miter"/>
   </g>
   <g id="patch_27">
    <path d="M 605.277237 191.317891 
L 631.946136 191.317891 
L 631.946136 61.741966 
L 605.277237 61.741966 
z
" clip-path="url(#paa1cd2cd39)" style="fill: #eda100; stroke: #fcfcfb; stroke-width: 2; stroke-linejoin: miter"/>
   </g>
   <g id="matplotlib.axis_7">
    <g id="xtick_13">
     <g id="line2d_49">
      <g>
       <use xlink:href="#m0841af3d36" x="518.603313" y="191.317891" style="fill: #52514e; stroke: #52514e; stroke-width: 0.8"/>
      </g>
     </g>
     <g id="text_26">
      <!-- 0 -->
      <g style="fill: #52514e" transform="translate(515.740188 205.155781) scale(0.09 -0.09)">
       <use xlink:href="#DejaVuSans-13"/>
      </g>
     </g>
    </g>
    <g id="xtick_14">
     <g id="line2d_50">
      <g>
       <use xlink:href="#m0841af3d36" x="551.939438" y="191.317891" style="fill: #52514e; stroke: #52514e; stroke-width: 0.8"/>
      </g>
     </g>
     <g id="text_27">
      <!-- 1 -->
      <g style="fill: #52514e" transform="translate(549.076313 205.155781) scale(0.09 -0.09)">
       <use xlink:href="#DejaVuSans-14"/>
      </g>
     </g>
    </g>
    <g id="xtick_15">
     <g id="line2d_51">
      <g>
       <use xlink:href="#m0841af3d36" x="585.275562" y="191.317891" style="fill: #52514e; stroke: #52514e; stroke-width: 0.8"/>
      </g>
     </g>
     <g id="text_28">
      <!-- 2 -->
      <g style="fill: #52514e" transform="translate(582.412437 205.155781) scale(0.09 -0.09)">
       <use xlink:href="#DejaVuSans-15"/>
      </g>
     </g>
    </g>
    <g id="xtick_16">
     <g id="line2d_52">
      <g>
       <use xlink:href="#m0841af3d36" x="618.611687" y="191.317891" style="fill: #52514e; stroke: #52514e; stroke-width: 0.8"/>
      </g>
     </g>
     <g id="text_29">
      <!-- 3 -->
      <g style="fill: #52514e" transform="translate(615.748562 205.155781) scale(0.09 -0.09)">
       <use xlink:href="#DejaVuSans-16"/>
      </g>
     </g>
    </g>
    <g id="text_30">
     <!-- Repeticiones exitosas -->
     <g style="fill: #52514e" transform="translate(519.833125 218.156484) scale(0.09 -0.09)">
      <use xlink:href="#DejaVuSans-35"/>
      <use xlink:href="#DejaVuSans-48" transform="translate(65 0)"/>
      <use xlink:href="#DejaVuSans-53" transform="translate(126.53125 0)"/>
      <use xlink:href="#DejaVuSans-48" transform="translate(190.015625 0)"/>
      <use xlink:href="#DejaVuSans-57" transform="translate(251.546875 0)"/>
      <use xlink:href="#DejaVuSans-4c" transform="translate(290.75 0)"/>
      <use xlink:href="#DejaVuSans-46" transform="translate(318.53125 0)"/>
      <use xlink:href="#DejaVuSans-4c" transform="translate(373.515625 0)"/>
      <use xlink:href="#DejaVuSans-52" transform="translate(401.296875 0)"/>
      <use xlink:href="#DejaVuSans-51" transform="translate(462.484375 0)"/>
      <use xlink:href="#DejaVuSans-48" transform="translate(525.859375 0)"/>
      <use xlink:href="#DejaVuSans-56" transform="translate(587.390625 0)"/>
      <use xlink:href="#DejaVuSans-3" transform="translate(639.484375 0)"/>
      <use xlink:href="#DejaVuSans-48" transform="translate(671.265625 0)"/>
      <use xlink:href="#DejaVuSans-5b" transform="translate(731.046875 0)"/>
      <use xlink:href="#DejaVuSans-4c" transform="translate(790.234375 0)"/>
      <use xlink:href="#DejaVuSans-57" transform="translate(818.015625 0)"/>
      <use xlink:href="#DejaVuSans-52" transform="translate(857.21875 0)"/>
      <use xlink:href="#DejaVuSans-56" transform="translate(918.40625 0)"/>
      <use xlink:href="#DejaVuSans-44" transform="translate(970.5 0)"/>
      <use xlink:href="#DejaVuSans-56" transform="translate(1031.78125 0)"/>
     </g>
    </g>
   </g>
   <g id="matplotlib.axis_8">
    <g id="ytick_19">
     <g id="line2d_53">
      <path d="M 498.935 191.317891 
L 638.28 191.317891 
" clip-path="url(#paa1cd2cd39)" style="fill: none; stroke: #e1e0d9; stroke-width: 0.6; stroke-linecap: square"/>
     </g>
     <g id="line2d_54">
      <g>
       <use xlink:href="#m4a474083e1" x="498.935" y="191.317891" style="fill: #52514e; stroke: #52514e; stroke-width: 0.8"/>
      </g>
     </g>
    </g>
    <g id="ytick_20">
     <g id="line2d_55">
      <path d="M 498.935 166.399444 
L 638.28 166.399444 
" clip-path="url(#paa1cd2cd39)" style="fill: none; stroke: #e1e0d9; stroke-width: 0.6; stroke-linecap: square"/>
     </g>
     <g id="line2d_56">
      <g>
       <use xlink:href="#m4a474083e1" x="498.935" y="166.399444" style="fill: #52514e; stroke: #52514e; stroke-width: 0.8"/>
      </g>
     </g>
    </g>
    <g id="ytick_21">
     <g id="line2d_57">
      <path d="M 498.935 141.480996 
L 638.28 141.480996 
" clip-path="url(#paa1cd2cd39)" style="fill: none; stroke: #e1e0d9; stroke-width: 0.6; stroke-linecap: square"/>
     </g>
     <g id="line2d_58">
      <g>
       <use xlink:href="#m4a474083e1" x="498.935" y="141.480996" style="fill: #52514e; stroke: #52514e; stroke-width: 0.8"/>
      </g>
     </g>
    </g>
    <g id="ytick_22">
     <g id="line2d_59">
      <path d="M 498.935 116.562549 
L 638.28 116.562549 
" clip-path="url(#paa1cd2cd39)" style="fill: none; stroke: #e1e0d9; stroke-width: 0.6; stroke-linecap: square"/>
     </g>
     <g id="line2d_60">
      <g>
       <use xlink:href="#m4a474083e1" x="498.935" y="116.562549" style="fill: #52514e; stroke: #52514e; stroke-width: 0.8"/>
      </g>
     </g>
    </g>
    <g id="ytick_23">
     <g id="line2d_61">
      <path d="M 498.935 91.644102 
L 638.28 91.644102 
" clip-path="url(#paa1cd2cd39)" style="fill: none; stroke: #e1e0d9; stroke-width: 0.6; stroke-linecap: square"/>
     </g>
     <g id="line2d_62">
      <g>
       <use xlink:href="#m4a474083e1" x="498.935" y="91.644102" style="fill: #52514e; stroke: #52514e; stroke-width: 0.8"/>
      </g>
     </g>
    </g>
    <g id="ytick_24">
     <g id="line2d_63">
      <path d="M 498.935 66.725655 
L 638.28 66.725655 
" clip-path="url(#paa1cd2cd39)" style="fill: none; stroke: #e1e0d9; stroke-width: 0.6; stroke-linecap: square"/>
     </g>
     <g id="line2d_64">
      <g>
       <use xlink:href="#m4a474083e1" x="498.935" y="66.725655" style="fill: #52514e; stroke: #52514e; stroke-width: 0.8"/>
      </g>
     </g>
    </g>
   </g>
   <g id="patch_28">
    <path d="M 498.935 191.317891 
L 498.935 44.797422 
" style="fill: none; stroke: #c3c2b7; stroke-width: 0.8; stroke-linejoin: miter; stroke-linecap: square"/>
   </g>
   <g id="patch_29">
    <path d="M 498.935 191.317891 
L 638.28 191.317891 
" style="fill: none; stroke: #c3c2b7; stroke-width: 0.8; stroke-linejoin: miter; stroke-linecap: square"/>
   </g>
   <g id="text_31">
    <!-- B3 -->
    <g style="fill: #0b0b0b" transform="translate(498.935 38.797422) scale(0.11 -0.11)">
     <use xlink:href="#DejaVuSans-25"/>
     <use xlink:href="#DejaVuSans-16" transform="translate(68.609375 0)"/>
    </g>
   </g>
  </g>
  <g id="text_32">
   <!-- Repeticiones exitosas por tarea · 40 tareas -->
   <g style="fill: #0b0b0b" transform="translate(6.48 12.966281) scale(0.11 -0.11)">
    <defs>
     <path id="DejaVuSans-79" d="M 684 2619 
L 1344 2619 
L 1344 1825 
L 684 1825 
L 684 2619 
z
" transform="scale(0.015625)"/>
     <path id="DejaVuSans-17" d="M 2419 4116 
L 825 1625 
L 2419 1625 
L 2419 4116 
z
M 2253 4666 
L 3047 4666 
L 3047 1625 
L 3713 1625 
L 3713 1100 
L 3047 1100 
L 3047 0 
L 2419 0 
L 2419 1100 
L 313 1100 
L 313 1709 
L 2253 4666 
z
" transform="scale(0.015625)"/>
    </defs>
    <use xlink:href="#DejaVuSans-35"/>
    <use xlink:href="#DejaVuSans-48" transform="translate(65 0)"/>
    <use xlink:href="#DejaVuSans-53" transform="translate(126.53125 0)"/>
    <use xlink:href="#DejaVuSans-48" transform="translate(190.015625 0)"/>
    <use xlink:href="#DejaVuSans-57" transform="translate(251.546875 0)"/>
    <use xlink:href="#DejaVuSans-4c" transform="translate(290.75 0)"/>
    <use xlink:href="#DejaVuSans-46" transform="translate(318.53125 0)"/>
    <use xlink:href="#DejaVuSans-4c" transform="translate(373.515625 0)"/>
    <use xlink:href="#DejaVuSans-52" transform="translate(401.296875 0)"/>
    <use xlink:href="#DejaVuSans-51" transform="translate(462.484375 0)"/>
    <use xlink:href="#DejaVuSans-48" transform="translate(525.859375 0)"/>
    <use xlink:href="#DejaVuSans-56" transform="translate(587.390625 0)"/>
    <use xlink:href="#DejaVuSans-3" transform="translate(639.484375 0)"/>
    <use xlink:href="#DejaVuSans-48" transform="translate(671.265625 0)"/>
    <use xlink:href="#DejaVuSans-5b" transform="translate(731.046875 0)"/>
    <use xlink:href="#DejaVuSans-4c" transform="translate(790.234375 0)"/>
    <use xlink:href="#DejaVuSans-57" transform="translate(818.015625 0)"/>
    <use xlink:href="#DejaVuSans-52" transform="translate(857.21875 0)"/>
    <use xlink:href="#DejaVuSans-56" transform="translate(918.40625 0)"/>
    <use xlink:href="#DejaVuSans-44" transform="translate(970.5 0)"/>
    <use xlink:href="#DejaVuSans-56" transform="translate(1031.78125 0)"/>
    <use xlink:href="#DejaVuSans-3" transform="translate(1083.875 0)"/>
    <use xlink:href="#DejaVuSans-53" transform="translate(1115.65625 0)"/>
    <use xlink:href="#DejaVuSans-52" transform="translate(1179.140625 0)"/>
    <use xlink:href="#DejaVuSans-55" transform="translate(1240.328125 0)"/>
    <use xlink:href="#DejaVuSans-3" transform="translate(1281.4375 0)"/>
    <use xlink:href="#DejaVuSans-57" transform="translate(1313.21875 0)"/>
    <use xlink:href="#DejaVuSans-44" transform="translate(1352.421875 0)"/>
    <use xlink:href="#DejaVuSans-55" transform="translate(1413.703125 0)"/>
    <use xlink:href="#DejaVuSans-48" transform="translate(1452.609375 0)"/>
    <use xlink:href="#DejaVuSans-44" transform="translate(1514.140625 0)"/>
    <use xlink:href="#DejaVuSans-3" transform="translate(1575.421875 0)"/>
    <use xlink:href="#DejaVuSans-79" transform="translate(1607.203125 0)"/>
    <use xlink:href="#DejaVuSans-3" transform="translate(1638.984375 0)"/>
    <use xlink:href="#DejaVuSans-17" transform="translate(1670.765625 0)"/>
    <use xlink:href="#DejaVuSans-13" transform="translate(1734.390625 0)"/>
    <use xlink:href="#DejaVuSans-3" transform="translate(1798.015625 0)"/>
    <use xlink:href="#DejaVuSans-57" transform="translate(1829.796875 0)"/>
    <use xlink:href="#DejaVuSans-44" transform="translate(1869 0)"/>
    <use xlink:href="#DejaVuSans-55" transform="translate(1930.28125 0)"/>
    <use xlink:href="#DejaVuSans-48" transform="translate(1969.1875 0)"/>
    <use xlink:href="#DejaVuSans-44" transform="translate(2030.71875 0)"/>
    <use xlink:href="#DejaVuSans-56" transform="translate(2092 0)"/>
   </g>
  </g>
 </g>
 <defs>
  <clipPath id="pb1ead396cf">
   <rect x="41.24" y="44.797422" width="139.345" height="146.520469"/>
  </clipPath>
  <clipPath id="pb74e4a8927">
   <rect x="193.805" y="44.797422" width="139.345" height="146.520469"/>
  </clipPath>
  <clipPath id="p764472d378">
   <rect x="346.37" y="44.797422" width="139.345" height="146.520469"/>
  </clipPath>
  <clipPath id="paa1cd2cd39">
   <rect x="498.935" y="44.797422" width="139.345" height="146.520469"/>
  </clipPath>
 </defs>
</svg>
